<svg class="svg-canvas" viewBox="0 0 800 600" width="1600" height="1200" preserveAspectRatio="none" version="1.1" xmlns="http://www.w3.org/2000/svg" xmlns:xlink="http://www.w3.org/1999/xlink">
        <!--滤镜-->
        <defs></defs>

        <!-- 背景 -->
        <g id="background">
            <rect x="0" y="0" fill="#ffffff" width="800" height="600"></rect>
            
          </g>

        <!--元素-->
        
                <g id="shape_DfoOsL2MOR" ref="shape_DfoOsL2MOR" key="shape_DfoOsL2MOR" mask="">
                  <g transform="translate(167.714484066099,14.204531334179023) rotate(0,313.41281886750096,277.41281886750096) scale(1,1)" style="opacity: 1;mix-blend-mode: undefined;" filter="">
                    <!--普通元素-->
                    <svg xmlns="http://www.w3.org/2000/svg" version="1.1" xmlns:xlink="http://www.w3.org/1999/xlink" width="626.8256377350019" height="554.8256377350019" viewBox="0 0 626.8256377350019 554.8256377350019" data-ligature="true" data-parent="shape_DfoOsL2MOR"><g data-role="text" data-width="162.28049650715352" data-height="92" transform="translate(232.27257061392424, 231.412818867501)"><path d="M40.08-58.46L40.08-58.46L40.53-58.23L43.54-58.46Q49.42-55.97 52.81-50.47L52.81-50.47Q53.18-50.47 53.86-49.49L53.86-49.49L53.86-49.27Q52.73-47.76 50.55-47.76L50.55-47.76L48.51-47.76Q46.93-47.76 45.27-49.49L45.27-49.49L44.82-49.49Q40.45-49.49 32.84-45.50L32.84-45.50Q32.84-44.52 28.85-43.69L28.85-43.69L28.85-44.30Q29.30-44.30 29.30-45.27L29.30-45.27Q28.25-45.43 23.28-53.49L23.28-53.49L23.28-54.31L24.56-54.31Q25.84-54.31 40.08-58.46ZM57.55-43.69L57.55-43.69Q58.31-43.69 58.31-43.47L58.31-43.47L59.59-43.69L59.81-43.69Q63.05-42.94 63.05-42.49L63.05-42.49L63.50-42.79L63.81-42.79L71.04-35.03L71.57-35.03L71.57-35.71L71.79-35.71Q71.79-35.03 72.32-32.24L72.32-32.24Q72.32-31.79 71.79-30.28L71.79-30.28L71.34-30.51L69.83-30.51Q69.00-29.91 67.27-25.24L67.27-25.24L67.27-24.56Q66.59-24.56 66.59-24.03L66.59-24.03L66.59-23.50Q67.27-23.50 67.27-23.28L67.27-23.28Q66.59-21.02 66.59-20.49L66.59-20.49Q66.82-18.31 66.82-18.00L66.82-18.00L66.59-16.57Q67.20-16.57 68.25-20.04L68.25-20.04L68.55-20.04L68.55-19.81Q65.99-12.66 65.99-6.78L65.99-6.78L66.37-6.25Q66.37-6.10 65.54-4.29L65.54-4.29Q65.76-2.94 65.76-2.26L65.76-2.26Q65.31-0.83 64.79 2.49L64.79 2.49Q65.09 2.94 65.09 3.16L65.09 3.16Q65.09 5.50 61.02 7.68L61.02 7.68Q60.04 7.68 55.29 3.47L55.29 3.47Q52.73 1.88 52.05-0.75L52.05-0.75Q51.38-0.75 49.34-2.26L49.34-2.26Q49.79-3.54 49.79-4.29L49.79-4.29Q49.42-4.29 48.82-5.50L48.82-5.50L49.12-6.78Q49.12-7.91 47.08-10.25L47.08-10.25Q46.33-10.25 40.75-6.55L40.75-6.55Q39.62-6.55 22.83 2.49L22.83 2.49Q22.30 3.62 21.85 3.77L21.85 3.77Q21.02 3.77 21.02 3.47L21.02 3.47L19.81 3.77L17.78 3.77Q15.14 2.26 14.09-2.03L14.09-2.03Q14.09-3.84 11.60-5.73L11.60-5.73L11.60-6.03Q12.58-7.01 12.58-7.99L12.58-7.99L12.35-7.99L13.03-9.27Q13.56-9.04 13.86-9.04L13.86-9.04Q14.31-9.27 14.61-9.27L14.61-9.27Q14.69-8.74 15.82-8.29L15.82-8.29Q19.81-8.29 21.39-12.28L21.39-12.28Q28.55-23.96 28.55-26.52L28.55-26.52L28.55-26.82L28.32-26.82Q17.55-24.63 17.55-21.24L17.55-21.24L16.05-20.26L15.82-20.26Q11.60-20.26 8.29-25.99L8.29-25.99Q7.91-25.99 6.63-29.30L6.63-29.30L4.60-32.02Q5.57-35.71 6.40-35.71L6.40-35.71L6.86-35.71Q7.76-35.03 8.51-35.03L8.51-35.03L8.89-35.03Q42.79-42.04 47.08-42.04L47.08-42.04L47.53-41.81Q47.53-42.49 54.84-43.24L54.84-43.24Q54.84-42.79 55.52-42.79L55.52-42.79Q57.55-43.24 57.55-43.69ZM45.58-33.75L45.58-33.75L46.56-33.75L46.56-34.28L46.03-34.28Q45.58-34.20 45.58-33.75ZM39.10-30.96L39.10-30.96Q38.65-31.19 38.27-31.19L38.27-31.19Q36.08-30.21 34.13-28.25L34.13-28.25Q41.81-23.73 41.81-21.54L41.81-21.54Q35.03-14.77 35.03-13.26L35.03-13.26L34.13-12.28L34.13-12.05L35.03-12.05Q35.63-12.05 45.58-14.54L45.58-14.54L45.58-14.77L44.37-16.20Q44.97-17.85 45.58-18.00L45.58-18.00Q45.88-18.00 46.33-17.78L46.33-17.78L48.82-18.00Q50.02-18.00 52.58-15.97L52.58-15.97L53.86-15.97Q53.86-14.54 55.29-13.26L55.29-13.26Q57.40-14.99 64.56-25.01L64.56-25.01L67.80-29.76L67.80-29.98Q67.72-30.43 63.81-31.56L63.81-31.56L62.53-31.56Q62.53-32.47 59.59-32.77L59.59-32.77Q58.68-32.77 55.29-32.54L55.29-32.54Q53.18-32.77 52.05-32.77L52.05-32.77Q42.94-30.28 41.58-30.28L41.58-30.28L41.36-30.74Q43.84-31.64 43.84-33.00L43.84-33.00L43.54-33.00Q41.51-31.87 39.10-30.96ZM68.55-20.04L68.55-20.49L68.85-20.49L68.85-20.04L68.55-20.04Z" transform="translate(0 74) " fill="rgb(51, 51, 51)" stroke="rgb(51, 51, 51)" stroke-width="0.129" data-glyph-w="85.14024825357676" data-glyph-h="75.33203125" data-glyph-ascender="66.2921875" data-glyph-descender="-9.03984375" data-kerning="0"></path><path d="M60.11-62.37L60.11-62.37Q65.31-62.37 67.12-58.61L67.12-58.61Q69.38-56.73 69.38-53.03L69.38-53.03Q64.56-49.72 63.66-48.89L63.66-48.89Q62.00-48.89 60.11-46.86L60.11-46.86L61.92-44.82L62.37-44.82Q62.60-44.82 62.60-45.12L62.60-45.12L63.20-44.82L63.43-44.82Q64.33-44.82 65.69-45.12L65.69-45.12Q67.05-43.99 70.44-42.11L70.44-42.11Q70.96-41.28 70.96-40.60L70.96-40.60L70.96-40.30Q69.00-35.56 67.12-35.56L67.12-35.56Q67.12-35.41 65.16-34.35L65.16-34.35Q64.41-34.35 64.41-35.10L64.41-35.10L62.98-35.10Q57.63-33.30 57.63-29.61L57.63-29.61Q57.18-28.02 57.18-27.35L57.18-27.35Q57.18-19.51 62.15-9.42L62.15-9.42Q64.86-1.73 64.86 2.11L64.86 2.11Q64.63 2.11 63.96 4.67L63.96 4.67Q61.17 5.88 61.17 6.10L61.17 6.10L59.44 6.55Q50.40 6.55 48.97 3.39L48.97 3.39Q47.31 3.39 45.50 1.36L45.50 1.36L45.73 1.36Q48.82 2.86 49.42 2.86L49.42 2.86L49.42 2.64Q41.43-2.86 41.43-3.92L41.43-3.92Q40.30-4.29 39.93-5.35L39.93-5.35Q39.10-5.35 35.71-9.12L35.71-9.12L35.93-9.12Q36.76-9.12 38.42-7.83L38.42-7.83L38.72-7.83L38.72-8.06Q36.91-9.49 36.91-10.62L36.91-10.62Q37.97-9.42 38.19-9.42L38.19-9.42L38.42-9.42L39.17-9.87Q47.16-7.16 49.42-7.16L49.42-7.16L49.19-7.61L49.19-7.83L49.64-7.83L50.17-7.61Q50.25-8.06 50.70-8.06L50.70-8.06L50.47-9.42Q50.47-11.53 50.17-17.85L50.17-17.85L49.87-18.38L51.45-31.64L50.92-31.64Q46.71-29.15 43.47-26.67L43.47-26.67Q42.94-26.67 40.68-24.86L40.68-24.86Q39.78-26.14 39.17-26.14L39.17-26.14Q38.72-25.91 38.42-25.91L38.42-25.91L36.16-28.63Q34.35-26.89 33.22-26.89L33.22-26.89Q32.17-25.91 26.44-22.83L26.44-22.83Q21.92-19.44 21.92-19.13L21.92-19.13L21.92-18.08L22.37-18.08Q21.92-17.25 21.92-16.65L21.92-16.65L21.92-15.37L22.67-15.37Q34.80-24.41 35.18-24.41L35.18-24.41L35.48-24.41Q34.13-23.05 33.22-20.94L33.22-20.94Q32.17-20.72 32.17-20.11L32.17-20.11Q32.39-19.59 32.39-19.36L32.39-19.36Q29.68-16.65 29.45-15.59L29.45-15.59Q29.68-15.07 29.68-14.84L29.68-14.84Q29.00-14.61 26.22-9.12L26.22-9.12L22.98-5.57L22.98-4.60L23.43-4.60L25.16-6.18L25.46-6.18L25.46-5.57Q22.15-0.38 15.44 6.10L15.44 6.10L14.92 6.10L12.96 4.37Q10.55 3.99 8.74 2.11L8.74 2.11L6.48 2.11Q5.73 0.45 5.73 0.15L5.73 0.15Q6.18-0.08 6.48-0.08L6.48-0.08Q6.48-0.45 6.18-0.90L6.18-0.90Q6.93-3.54 6.93-5.12L6.93-5.12Q6.48-5.12 6.48-5.57L6.48-5.57L6.48-5.95Q6.48-6.40 8.96-6.63L8.96-6.63Q10.55-5.95 11.22-5.95L11.22-5.95L11.45-5.95Q13.33-5.95 14.69-13.41L14.69-13.41Q14.46-13.86 14.46-14.16L14.46-14.16L14.16-14.16Q13.48-13.11 12.96-13.11L12.96-13.11Q11.83-13.26 7.99-17.85L7.99-17.85Q8.21-18.31 8.21-18.68L8.21-18.68Q7.31-19.51 7.16-22.83L7.16-22.83L8.74-23.65Q11.75-22.60 12.43-22.60L12.43-22.60L12.66-22.60Q17.18-25.09 17.18-26.89L17.18-26.89Q16.95-29.91 16.95-30.13L16.95-30.13Q15.74-30.13 14.69-28.85L14.69-28.85Q14.46-28.85 13.94-29.15L13.94-29.15Q12.58-28.85 11.68-28.85L11.68-28.85Q10.17-28.85 9.42-35.10L9.42-35.10L9.64-36.61L9.64-38.65Q9.12-51.83 6.93-51.83L6.93-51.83Q6.55-51.83 6.18-52.36L6.18-52.36Q6.18-53.41 8.21-53.64L8.21-53.64Q12.96-53.03 12.96-50.92L12.96-50.92Q23.05-54.99 24.93-58.38L24.93-58.38Q26.82-59.89 29.45-60.57L29.45-60.57Q39.40-58.08 39.40-54.84L39.40-54.84Q39.62-54.84 39.62-54.39L39.62-54.39Q36.76-50.70 34.43-42.56L34.43-42.56Q34.05-42.11 32.39-38.04L32.39-38.04Q29.45-34.58 28.70-34.58L28.70-34.58Q21.92-34.58 21.92-30.36L21.92-30.36Q21.54-30.36 21.47-29.15L21.47-29.15L21.47-28.10L21.70-28.10Q24.63-29.15 27.65-32.62L27.65-32.62Q28.63-32.62 29.68-33.37L29.68-33.37L35.48-30.89Q35.86-30.89 36.91-33.67L36.91-33.67Q37.14-33.67 38.72-36.16L38.72-36.16Q40.08-35.78 40.98-34.88L40.98-34.88L41.66-34.88Q43.99-35.48 52.66-40.08L52.66-40.08L52.66-40.30L51.90-40.30Q50.62-40.30 45.73-39.40L45.73-39.40L45.50-39.40L45.50-39.62L46.40-40.60L46.18-41.88Q46.18-43.39 51.90-45.88L51.90-45.88Q56.50-50.02 57.40-52.58L57.40-52.58L56.88-52.58Q55.97-52.58 50.70-47.61L50.70-47.61Q49.04-46.86 48.21-46.86L48.21-46.86L48.21-47.08L47.99-47.08Q46.18-46.25 46.18-44.82L46.18-44.82L45.12-44.82Q43.84-44.82 42.41-48.36L42.41-48.36Q41.43-49.34 40.98-49.34L40.98-49.34L39.62-49.12L39.62-49.34Q41.51-50.47 43.24-52.81L43.24-52.81Q44.45-52.81 44.45-53.03L44.45-53.03L44.90-52.81L46.40-52.81Q47.16-52.81 53.18-57.33L53.18-57.33Q55.37-58.61 58.91-61.85L58.91-61.85Q59.59-61.85 60.11-62.37ZM21.17-47.08L21.17-47.08L21.47-47.08Q24.63-47.61 24.63-49.57L24.63-49.57Q24.93-51.00 24.93-51.60L24.93-51.60L24.63-51.60Q21.77-51.60 21.17-47.08ZM13.71-47.08L13.71-47.08Q14.24-43.39 15.14-43.39L15.14-43.39Q16.80-44.07 16.95-44.60L16.95-44.60L16.95-47.61Q16.95-48.06 16.42-48.06L16.42-48.06Q14.31-47.84 13.71-47.08ZM22.67-41.88L22.15-41.88Q22.15-40.75 21.47-39.85L21.47-39.85L21.47-38.65Q21.54-38.04 21.92-38.04L21.92-38.04Q22.37-39.02 22.67-41.88L22.67-41.88ZM15.14-37.82L15.14-37.82Q15.74-36.76 15.97-34.88L15.97-34.88L17.18-35.10L16.95-38.04L16.95-39.40Q16.72-39.40 16.20-39.62L16.20-39.62Q15.14-39.40 15.14-37.82ZM59.66-35.93L59.66-35.93L60.11-35.56L60.49-36.16L60.49-36.39L60.11-36.39Q59.66-36.31 59.66-35.93ZM39.17-7.61L38.95-7.61Q39.02-7.16 39.40-7.16L39.40-7.16L39.62-7.16Q39.62-7.61 39.17-7.61L39.17-7.61Z" transform="translate(85.14024825357676 74) " fill="rgb(51, 51, 51)" stroke="rgb(51, 51, 51)" stroke-width="0.129" data-glyph-w="85.14024825357676" data-glyph-h="75.33203125" data-glyph-ascender="66.2921875" data-glyph-descender="-9.03984375" data-kerning="0"></path></g></svg>
                  </g>
                </g>
                <g id="shape_2CZDBaSoEu" ref="shape_2CZDBaSoEu" key="shape_2CZDBaSoEu" mask="">
                  <g transform="translate(214.92577830334,232.29874139472) rotate(0,74.546625991273,72.15930440348) scale(1,1)" style="opacity: 1;mix-blend-mode: undefined;" filter="">
                    <!--普通元素-->
                    <svg version="1.1" id="图层_1" xmlns="http://www.w3.org/2000/svg" xmlns:xlink="http://www.w3.org/1999/xlink" x="0px" y="0px" viewBox="-0.1407993882894516 0.020338058471679688 309.80096435546875 299.8797302246094" enable-background="new 0 0 309.7 299.7" xml:space="preserve" width="149.09325198255" height="144.31860880696" class="style-removed" preserveAspectRatio="none" data-parent="shape_2CZDBaSoEu">
<path fill="#2DB6DC" d="M301.6,160.9c0.8-1.1,1.5-2.3,2.1-3.6c4.6-5.5,6.9-12.8,5.6-20.4c-1.3-8-6.2-14.5-12.7-18.1
	c2.1-4.6,3-9.8,2.1-15.2c-1.7-10.2-9-17.9-18.2-20.7c-0.8-1.9-1.8-3.7-3.1-5.3c0.5-2.3,0.6-4.8,0.2-7.3c-1.2-7.5-6.5-13.4-13.3-15.7
	c0-0.1,0-0.1,0-0.2c-1.5-9.1-10.1-15.3-19.2-13.8h0c0.3-1.4,0.3-2.9,0.1-4.4c-0.5-2.9-2-5.4-4-7.3l0.1,0c0,0-0.2-0.1-0.5-0.4
	c-0.5-0.4-1-0.7-1.5-1c-3.9-2.7-14.3-5.7-23.2-12c-9.9-7.1-24.6-9.8-33.4-9c0,0,22.9,10.1,36.6,27.2c0,0.6,0.8,6.1,0.9,6.7
	c1,6.1,6.2,10.5,12.2,10.6c-1.1,2.7-1.5,5.8-1,8.9c0.8,4.6,3.3,8.4,6.9,10.9c-0.3,1.9-0.3,3.9,0.1,5.9c0.6,3.6,2.1,6.7,4.2,9.4
	c-0.5,2.3-0.6,4.8-0.2,7.3c0.7,4.1,2.5,7.6,5.1,10.4c-0.4,2.6-0.4,5.4,0,8.2c1.2,7.2,4.6,14.2,10.7,17.1c5.2,2.4,10.6-0.3,13.8-3
	c3.9-3.3,6.4-8.8,3.7-13.1c-1.6-2.5-3.4-3.8-5.2-3.9c-2.9-0.1-6,3-6.8,4.1c-0.8,1.1-2.4,1.3-3.4,0.4c-1.1-0.8-1.3-2.4-0.4-3.4
	c0.2-0.3,4.8-6.2,10.9-6c3.5,0.1,6.6,2.2,9.1,6.1c0.9,1.4,1.5,3,1.8,4.6c0.8,5.1-1.5,10.8-6.4,14.9c-0.9,0.8-2,1.5-3.2,2.1
	c5.2,2.5,8.7,6.8,9.4,11.5c0.3,1.6,0.2,3.3-0.2,4.9c-1.2,4.5-3.4,7.5-6.7,8.7c-5.7,2.2-12-2-12.2-2.2c-1.1-0.8-1.4-2.3-0.7-3.4
	c0.8-1.1,2.3-1.4,3.4-0.7c1.2,0.8,5,2.7,7.8,1.7c1.7-0.6,2.9-2.4,3.7-5.3c1.3-4.9-2.9-9.4-7.6-11.2c-3.6-1.4-8.9-1.9-12.3,1.8
	c-3.1,3.4-4.2,6.9-3.1,12.7c1,5.5,3.8,11,8.3,14.2c-3.3,5.1-4.8,11.3-3.7,17.8c0.4,2.5,1.2,4.8,2.2,6.9c-1.1,0-2.2,0.1-3.2,0.3
	c-5.2,0.8-10.1,3.2-12.9,7.2c-2.6,3.8-7,9-10.8,10.9c-3.2,1.6-6.6,2.2-9.7,2.1c-0.5-1.7-1-3.3-1.6-5c4.7,0.8,10.4-0.3,14.5-5.7
	c3.5-4.6,4.6-10.9,3.6-16.8c-1-6.4-4.7-11.6-9.8-14.8c1.1-3.5,1.7-7.1,1.7-10.9c0-15-9.1-27.9-22-33.5c0.2-1.1,0.3-2.1,0.3-3.2
	c2.1-0.8,4-1.9,5.9-3.4c9.3-7.6,10.7-21.4,3.1-30.7c-2.4-2.9-5.4-5-8.7-6.3c-10.3-0.5-17.7,3.4-20.9,8.6c-1.9,3.1-2.3,6.3-1,9
	c-1.7-1.8-3.6-3.5-5.5-5c0.3-2.2,1.1-4.5,2.4-6.6c1.1-1.7,2.6-3.4,4.4-5c4.8-3.9,12.1-6.6,21.7-5.9c2.8-7.1,1.9-15.6-3.4-21.9
	c-1.9-2.3-4.2-4.1-6.6-5.5c1.4-6.2,0-12.9-4.3-18.1c-10.1-12.4-21.3-13.5-27.3-4.7c-1.2,1.7-1.9,3.6-2.3,5.4c-1,5,0.4,10.9,5.2,12.5
	c2.8,1,5,0.9,6.5-0.2c2.3-1.7,2.9-5.9,2.8-7.4c0-1.4,1.1-2.5,2.4-2.5c1.3,0,2.5,1.1,2.5,2.4c0,0.3,0,7.9-4.8,11.4
	c-2.8,2.1-6.5,2.3-10.9,0.8c-5.6-1.9-8.9-7.5-8.9-14.2c-1.2,0.8-2.5,1.5-3.8,2c-7.9,3-16,0.7-19.3-5.4c-2.2-4.2-2.5-7.8-0.9-10.9
	c0.7-1.3,1.6-2.4,2.7-3.2c3.3-2.7,7.6-3.4,7.9-3.4c1.3-0.2,2.6,0.7,2.8,2.1c0.2,1.3-0.7,2.6-2.1,2.8c-1.5,0.2-5.5,1.4-6.9,4
	c-0.8,1.6-0.5,3.8,0.9,6.4c2.4,4.5,8.3,4.6,13.2,3.2c6.9-2,15.4-10.5,6.8-21C153.5-3.6,143-1.4,133.9,6c-3.9,3.2-6.3,7.5-7.3,12
	c-9.1-9.2-23.9-10.1-34.1-1.8c-4,3.3-6.8,7.6-8.2,12.3c-1.4-0.1-2.8-0.1-4.1,0c-7-1.2-14.5,0.5-20.5,5.3c-6.3,5.1-9.4,12.6-9.3,20.1
	c-5,0.4-10,2.3-14.2,5.8c-8,6.5-11,16.7-8.8,26.1c-1.3,1.6-2.3,3.4-3,5.3c-2.3,0.7-4.4,1.9-6.4,3.5c-5.9,4.8-8.3,12.3-7,19.3
	c0,0-0.1,0.1-0.2,0.1c-7.1,5.8-8.2,16.4-2.4,23.5c0,0,0,0,0,0c-1.3,0.5-2.7,1.2-3.8,2.1c-2.3,1.9-3.7,4.4-4.3,7.1l-0.1,0
	c0,0,0,0.2-0.1,0.6c-0.1,0.6-0.2,1.2-0.2,1.8c-0.4,4.7,2.3,15.3,1.2,26.1c-1.2,12.1,3.8,26.2,8.9,33.4c0,0-2.7-24.9,5.3-45.3
	c0.5-0.3,4.9-3.7,5.3-4.1c4.8-3.9,6-10.6,3.1-15.8c2.9-0.4,5.7-1.6,8.1-3.6c3.6-2.9,5.7-7.1,6.1-11.4c1.8-0.7,3.5-1.7,5.1-3
	c2.8-2.3,4.8-5.2,6-8.3c2.3-0.7,4.4-1.9,6.4-3.5c3.2-2.6,5.4-6,6.5-9.6c2.5-1,4.9-2.3,7.1-4.1c5.6-4.6,10-11.1,9.4-17.8
	c-0.5-5.7-5.6-9-9.6-10.5c-4.8-1.8-10.8-1.2-13.1,3.4c-1.4,2.7-1.6,4.8-0.8,6.4c1.4,2.6,5.6,3.7,6.9,3.9c1.3,0.2,2.3,1.4,2.1,2.8
	c-0.2,1.3-1.4,2.3-2.8,2.1c-0.3,0-7.8-1.1-10.6-6.5c-1.6-3.1-1.4-6.8,0.8-11c0.8-1.5,1.8-2.8,3.1-3.9c4-3.3,10.1-4.1,16.1-1.9
	c1.2,0.4,2.3,1,3.4,1.7c-0.5-5.7,1.5-10.9,5.2-13.9c1.3-1,2.8-1.8,4.4-2.3c4.5-1.3,8.2-0.8,10.9,1.4c4.7,3.8,4.2,11.4,4.2,11.7
	c-0.1,1.4-1.3,2.4-2.6,2.3c-1.4-0.1-2.4-1.3-2.3-2.6c0.1-1.5-0.2-5.7-2.4-7.6c-1.4-1.1-3.6-1.3-6.5-0.5c-4.9,1.4-6.7,7.2-5.9,12.2
	c0.6,3.8,2.8,8.7,7.7,9.8c4.5,1,8.1,0.2,12.6-3.6c4.3-3.7,7.6-8.8,8.2-14.3c6,0.3,12.2-1.6,17.3-5.7c1.9-1.6,3.6-3.4,4.9-5.4
	c0.6,0.9,1.1,1.8,1.8,2.7c3.3,4.1,7.8,7.2,12.7,7.6c4.6,0.4,11.3,1.5,14.8,3.9c5.3,3.5,8.1,8.9,8.8,13.9c0.3,2.1,0.3,4.1,0,6
	c-1.6-0.4-3.2-0.8-4.8-1.1c0.2-1.4,0.2-2.8,0-4.2c-0.8-5.4-4.7-12-13.1-13.1c-5.7-0.8-11.7,1.5-16.3,5.3c-6,4.9-8.7,12.3-7.8,19.5
	c-2.5,2.4-4.3,5.3-5.4,8.5c0,0,0,0,0,0c-5,6.1-8.5,13.5-9.9,21.6c-5.9,1.2-11.2,3.7-15.7,7.3c-0.1,0.1-0.3,0.1-0.4,0.2
	c-1.7-1.4-3.7-2.5-5.9-3.4c-11.3-4.3-23.9,1.4-28.1,12.7c-1.3,3.5-1.6,7.2-1.2,10.7c4.7,9.2,11.8,13.6,17.9,13.8
	c1.6,0.1,3-0.1,4.3-0.6c0.2,1.6,0.5,3.3,1,4.8c-1.7,0.5-3.5,0.8-5.4,0.7c-2.1-0.1-4.3-0.5-6.5-1.4c-5.8-2.2-11.8-7.1-16-15.8
	c-7.6,1.1-14.4,6.2-17.3,13.9c-1.1,2.8-1.5,5.7-1.4,8.5c-6,1.9-11.2,6.4-13.6,12.7c-5.7,14.9-1,25.2,9.6,26.1
	c2.1,0.2,4.1-0.1,5.9-0.7c4.8-1.6,9.2-5.8,8.2-10.8c-0.6-2.9-1.7-4.8-3.4-5.5c-2.6-1.1-6.6,0.5-7.9,1.3c-1.2,0.7-2.7,0.3-3.3-0.9
	c-0.7-1.2-0.3-2.7,0.8-3.3c0.3-0.2,6.8-4,12.3-1.5c3.2,1.4,5.3,4.5,6.2,9.1c1.1,5.8-2.1,11.5-7.9,14.8c1.3,0.7,2.5,1.5,3.6,2.3
	c6.6,5.3,8.6,13.5,4.9,19.4c-2.5,4-5.5,6.1-9,6.3c-1.5,0.1-2.9-0.2-4.1-0.7c-4-1.5-6.7-4.9-6.9-5.1c-0.8-1.1-0.7-2.6,0.4-3.4
	c1.1-0.8,2.6-0.7,3.4,0.4c0.9,1.2,4,4.1,6.9,3.9c1.8-0.1,3.5-1.4,5.1-4c2.7-4.3-0.2-9.5-3.8-13c-5.2-4.9-16.8-8.1-21.6,4.6
	c-5.8,15.3,1.4,23.2,12.3,27.4c4.7,1.8,9.7,1.8,14.1,0.3c-3.4,12.5,3.2,25.7,15.5,30.4c4.9,1.9,10,2.1,14.8,1
	c0.6,1.3,1.3,2.4,2.1,3.6c1.1,3,2.7,5.7,4.8,8.1c0.9,1,1.9,2,3,2.9c0.9,0.8,1.9,1.5,3,2.1v-57.4c0,0,0-0.5,0-1.3
	c0-3.1,0.2-11.3,2.1-21.1c1-5.2,2.4-10.8,4.5-16.3c1.5-4.1,3.5-8.1,5.8-12c1.3-2.1,2.7-4.2,4.3-6.1c-10.1-3.3-17.9-11.8-20.2-22.3
	c-0.5-2.1-0.7-4.3-0.7-6.6c0-3.8,0.7-7.4,2-10.8c3.7-9.9,12.5-17.3,23.1-19.2c1.2-0.2,2.5-0.4,3.8-0.5c0.3-5.3,1.6-10.4,3.8-14.9
	c4.8-10.1,13.8-17.8,24.7-21c1.6-0.5,3.2-0.8,4.9-1.1c2-0.3,4.1-0.5,6.2-0.5c1.8,0,3.5,0.1,5.2,0.3c1.8,0.2,3.5,0.6,5.2,1
	c16.2,4.4,28.2,18.7,29.2,36.1c0.2,0,0.3,0,0.5,0c4.6,0,8.9,1,12.7,2.8c10.5,4.8,17.8,15.4,17.8,27.7c0,1.7-0.1,3.4-0.4,5v0
	c-1.9,11.3-9.9,20.5-20.6,24c0.8,1,1.5,1.9,2.2,2.9c1.3,1.8,2.4,3.7,3.5,5.6c1.3,2.3,2.4,4.7,3.4,7.1c1,2.4,1.9,4.8,2.6,7.2
	c5.5,17.5,4.9,33.9,4.9,33.9v13.3v16.4v24.7c0.4-0.1,0.7-0.2,1.1-0.3l0,0.1c0,0,0.2-0.1,0.6-0.3c0.5-0.2,0.9-0.4,1.4-0.6
	c0.1,0,0.2-0.1,0.3-0.1c0.8-0.4,1.7-0.9,2.7-1.6c4.5-3.1,11.2-8.8,19.2-12.4c11.1-5,20.8-16.4,24.5-24.4
	c-0.6,0.4-20.5,14.9-41.9,18.1c-0.2-0.1-1-0.4-1.9-0.8V254c4.6,3.8,10.7,5.6,17,4.6c15.8-2.6,22.3-11.7,17.8-21.3
	c-0.9-1.9-2.2-3.5-3.6-4.7c-3.8-3.4-9.6-5.1-13.4-1.7c-2.3,2-3.3,3.9-3.1,5.7c0.3,2.8,3.7,5.4,5,6.2c1.2,0.7,1.6,2.2,0.9,3.3
	c-0.7,1.2-2.2,1.6-3.3,0.9c-0.3-0.2-6.9-3.9-7.5-9.9c-0.4-3.5,1.2-6.8,4.8-9.9c4.4-3.9,11-3.9,16.7-0.6c-0.1-1.5,0-2.9,0.2-4.3
	c1.3-8.4,7.3-14.2,14.3-14c4.7,0.2,8,1.8,9.9,4.7c0.8,1.2,1.3,2.6,1.5,3.9c0.7,4.2-0.9,8.3-1,8.5c-0.5,1.3-1.9,1.9-3.2,1.4
	s-1.9-1.9-1.4-3.2c0.5-1.4,1.6-5.5,0-7.9c-1-1.5-3-2.3-6-2.4c-5.1-0.2-8.1,4.9-9.3,9.8c-1.7,7,1.4,18.6,14.8,16.4
	c16.1-2.6,19.4-12.8,17.5-24.4c-0.8-5-3.3-9.2-6.8-12.4c12.5-3.3,20.7-15.6,18.6-28.7C307.3,169,305,164.5,301.6,160.9z
	 M225.2,184.9c1.1,0.8,1.4,2.3,0.7,3.4c-0.8,1.1-2.3,1.4-3.4,0.7c-1.1-0.7-4.3-2.3-6.9-1.9c1.9-1.2,3.7-2.6,5.3-4.2
	C223.3,183.6,225.1,184.8,225.2,184.9z M195.8,101.8c2.9-0.4,5.4-4,6-5.2c0.6-1.2,2.1-1.7,3.3-1.1c1.2,0.6,1.7,2.1,1,3.3
	c-0.2,0.3-3.7,7-9.7,7.8c-0.2,0-0.5,0.1-0.7,0.1c-1.2-2.2-2.6-4.4-4.1-6.3C193.1,101.6,194.5,102,195.8,101.8z M143.2,82.8
	c0.1-1.4,1.3-2.4,2.6-2.3c1.3,0.1,2.4,1.3,2.3,2.6v0c-1.7,0.3-3.3,0.6-4.9,1.1C143.2,83.4,143.2,82.9,143.2,82.8z M78.5,147.2
	c-1.3,0.1-2.5-1-2.6-2.3c-0.1-1.4,1-2.5,2.3-2.6c0.2,0,2.6-0.1,5.3,0.6c-0.6,1.5-1.1,3.1-1.5,4.7C80.7,147.2,79.2,147.1,78.5,147.2z
	 M81.6,234.5c-2.3-0.9-4.7-1.4-7.1-1.6c0.5-0.9,1-1.9,1.4-2.9c1.9-4.9,2.3-10.4,0.2-14.8c-2-4.2-4.3-10.5-4-14.8
	c0.4-6.4,3.7-11.5,7.6-14.6c3.6-2.9,7.6-4.2,11.4-4.1c2.3,2.4,4.9,4.5,7.8,6.2c-0.5,0.8-0.9,1.5-1.4,2.3c-0.4-0.5-0.8-1-1.3-1.5
	c-3.6-3.6-9.5-2.2-13.5,1c-4.2,3.4-8.1,10-4.8,17.9c1.8,4.3,5.4,7.9,9.7,10.1c-1.5,7.4-2.1,14-2.3,18.5
	C84.2,235.6,82.9,235,81.6,234.5z" stroke-width="0"></path>
</svg>
                  </g>
                </g>
                <g id="shape_z5EUMi48f8" ref="shape_z5EUMi48f8" key="shape_z5EUMi48f8" mask="">
                  <g transform="translate(358.170678437789,281.16072570586897) rotate(0,122.956624495811,81.956624495811) scale(1,1)" style="opacity: 1;mix-blend-mode: undefined;" filter="">
                    <!--普通元素-->
                    <svg xmlns="http://www.w3.org/2000/svg" version="1.1" xmlns:xlink="http://www.w3.org/1999/xlink" width="245.91324899162203" height="163.913248991622" viewBox="0 0 245.91324899162203 163.913248991622" data-ligature="true" data-parent="shape_z5EUMi48f8"><g data-role="text" data-width="108.69061252173088" data-height="27" transform="translate(68.61131823494556, 68.456624495811)"><path d="M5.68-15.49L5.68-15.49Q8.04-15.33 8.04-14.64L8.04-14.64L7.98-14.51Q7.98-13.59 8.67-10.16L8.67-10.16L8.74-9.67L8.67-9.54Q8.80-8.49 8.80-8.02L8.80-8.02L9.00-8.02Q9.00-8.33 9.27-8.51L9.27-8.51L12.26-13.62Q12.03-13.95 12.03-14.11L12.03-14.11Q12.52-14.24 12.52-14.86L12.52-14.86Q13.26-15.27 13.50-15.27L13.50-15.27L13.84-15.27Q14.22-15.27 14.80-15.33L14.80-15.33L15.78-14.80L15.71-14.44L15.71-14.24L15.98-14.17L15.98-14.04Q15.78-14.04 15.78-13.88L15.78-13.88L15.98-13.62L15.84-13.55L15.78-13.55L15.78-13.68L15.64-13.68Q15.49-13.22 15.49-12.86L15.49-12.86L15.49-12.79Q15.49-12.64 15.58-12.50L15.58-12.50Q15.49-12.37 15.49-12.30L15.49-12.30Q15.71-8.51 16.18-5.06L16.18-5.06Q16.11-4.93 16.11-4.77L16.11-4.77L16.18-4.50Q16.11-4.37 16.11-4.21L16.11-4.21Q16.60-2.30 16.87-1.45L16.87-1.45L16.40-1.38L16.11-1.52L15.29-1.45Q15.18-1.45 14.66-1.60L14.66-1.60Q14.02-1.25 13.84-1.25L13.84-1.25Q13.59-1.25 12.72-2.36L12.72-2.36L12.95-3.94L12.81-8.02Q12.88-8.36 12.88-8.91L12.88-8.91L12.81-9.20Q12.95-9.85 12.95-10.79L12.95-10.79L12.81-10.85Q11.14-8.22 11.14-7.82L11.14-7.82Q10.67-7.38 9.43-4.01L9.43-4.01Q9.32-4.01 9.00-3.39L9.00-3.39L8.25-3.12Q7.51-3.34 6.93-4.08L6.93-4.08L7.00-4.21Q6.86-4.46 6.86-4.64L6.86-4.64L6.86-4.70Q6.86-4.77 6.93-4.77L6.93-4.77L6.86-4.90Q6.86-5.95 6.73-6.71L6.73-6.71L6.80-6.84Q6.60-9.16 6.60-9.96L6.60-9.96L6.60-10.85L6.51-11.54Q5.91-10.76 5.68-9.27L5.68-9.27Q5.13-6.91 4.86-6.02L4.86-6.02L4.86-5.82Q5.01-5.82 5.13-5.19L5.13-5.19Q5.13-3.61 4.52-2.50L4.52-2.50L4.43-1.87L4.59-1.52Q4.10-1.11 3.83-1.11L3.83-1.11Q3.68-1.11 2.85-1.31L2.85-1.31Q2.36-1.31 1.07-1.05L1.07-1.05Q0.71-1.14 0.71-1.52L0.71-1.52L0.78-2.01Q0.71-2.14 0.71-2.21L0.71-2.21Q0.94-2.36 1.07-2.36L1.07-2.36L0.98-2.83Q1.14-2.83 1.14-2.99L1.14-2.99L1.14-3.05Q1.14-3.12 1.07-3.12L1.07-3.12Q2.65-7.04 4.43-13.82L4.43-13.82Q4.52-14.20 4.52-14.37L4.52-14.37L4.43-14.86Q4.43-15.06 5.68-15.49Z" transform="translate(0 21) " fill="rgb(51, 51, 51)" stroke="rgb(51, 51, 51)" stroke-width="0.038" data-glyph-w="22.27124263703298" data-glyph-h="22.28515625" data-glyph-ascender="19.6109375" data-glyph-descender="-2.67421875" data-kerning="0"></path><path d="M3.32-13.08L3.32-13.08Q4.23-13.08 4.70-11.77L4.70-11.77Q4.70-11.39 3.74-10.81L3.74-10.81Q3.01-10.99 2.83-11.14L2.83-11.14Q2.72-11.08 2.56-11.08L2.56-11.08Q2.14-11.66 2.14-11.77L2.14-11.77Q2.30-13.01 3.25-13.01L3.25-13.01Q3.25-13.08 3.32-13.08ZM2.14-9.27L2.21-9.63L2.36-9.63Q2.67-9.63 3.05-9.56L3.05-9.56L3.45-9.63Q3.83-9.63 4.15-9.07L4.15-9.07Q3.94-6.91 3.94-5.06L3.94-5.06Q4.01-4.70 4.01-4.66L4.01-4.66L3.94-4.23Q4.01-3.63 4.01-3.54L4.01-3.54L3.94-3.14Q4.01-2.47 4.01-1.89L4.01-1.89L4.01-1.34Q4.01-1.27 4.08-1.27L4.08-1.27Q3.90-0.22 3.81-0.22L3.81-0.22Q3.68-0.29 3.59-0.29L3.59-0.29L3.52-0.16L3.59-0.02Q3.52 0.18 3.45 0.18L3.45 0.18Q3.23 0.04 3.05 0.04L3.05 0.04Q2.99 0.16 2.99 0.31L2.99 0.31L2.90 0.31Q1.45-1.00 1.45-1.76L1.45-1.76Q1.89-4.66 2.14-8.87L2.14-8.87L2.14-9.27Z" transform="translate(22.27124263703298 21) " fill="rgb(51, 51, 51)" stroke="rgb(51, 51, 51)" stroke-width="0.038" data-glyph-w="10.52696529328298" data-glyph-h="22.28515625" data-glyph-ascender="19.6109375" data-glyph-descender="-2.67421875" data-kerning="0"></path><path d="M5.01-15.58L5.01-15.58Q5.28-15.44 5.42-15.44L5.42-15.44Q5.42-15.51 5.50-15.51L5.50-15.51L5.50-15.44L5.42-15.18L5.50-15.04Q5.01-12.55 4.88-7.84L4.88-7.84L5.01-7.84Q6.40-8.78 6.40-9.36L6.40-9.36L6.89-9.72L7.35-9.65Q8.11-10.10 9.09-10.34L9.09-10.34L9.85-9.72Q10.25-9.72 10.25-9.09L10.25-9.09L10.25-8.67Q10.25-7.58 7.49-6.89L7.49-6.89Q7.24-6.89 6.04-6.26L6.04-6.26Q5.73-6.13 5.71-5.97L5.71-5.97Q9.29-3.45 9.36-2.05L9.36-2.05Q9.27-1.07 9.09-1.07L9.09-1.07L9.16-0.94L9.16-0.74Q8.96-0.74 8.18-0.11L8.18-0.11L8.04-0.11Q7.71-0.11 6.95-1.29L6.95-1.29Q6.84-1.29 6.66-1.56L6.66-1.56Q6.73-1.94 6.73-2.12L6.73-2.12Q5.91-3.25 5.08-4.06L5.08-4.06L4.95-4.06L4.95-3.43Q4.95-3.30 4.81-2.74L4.81-2.74Q4.95-1.81 4.95-1.56L4.95-1.56Q4.19 0.51 3.28 0.51L3.28 0.51L2.59 0.58Q2.34 0.58 1.69-0.04L1.69-0.04Q1.27-0.04 1.27-0.60L1.27-0.60Q1.89-2.05 2.25-3.90L2.25-3.90Q2.65-5.95 3.01-12.68L3.01-12.68Q3.14-12.68 3.14-14.06L3.14-14.06Q2.65-14.17 2.65-14.82L2.65-14.82Q2.65-14.93 3.34-15.51L3.34-15.51L3.63-15.44Q4.15-15.44 5.01-15.58Z" transform="translate(32.79820793031596 21) " fill="rgb(51, 51, 51)" stroke="rgb(51, 51, 51)" stroke-width="0.038" data-glyph-w="16.36567623078298" data-glyph-h="22.28515625" data-glyph-ascender="19.6109375" data-glyph-descender="-2.67421875" data-kerning="0"></path><path d="M5.01-10.21L5.01-10.21Q7.24-9.52 7.71-8.67L7.71-8.67Q7.53-7.40 6.95-7.40L6.95-7.40Q6.55-7.40 6.20-7.87L6.20-7.87Q6.11-7.87 5.57-8.54L5.57-8.54L5.01-8.89L4.95-8.89Q4.10-8.89 3.16-7.58L3.16-7.58Q3.10-7.49 3.10-7.29L3.10-7.29L3.10-6.95Q3.10-5.86 4.95-5.86L4.95-5.86Q6.31-5.86 7.84-4.79L7.84-4.79Q8.40-4.03 8.40-3.63L8.40-3.63L8.40-3.23Q8.40-3.16 8.47-3.16L8.47-3.16Q8.31-2.16 7.38-1.05L7.38-1.05Q6.53-0.04 4.48 0.42L4.48 0.42Q2.27 0.42 1.29-1.45L1.29-1.45L1.23-1.76Q1.54-2.90 1.85-2.90L1.85-2.90Q2.90-2.90 3.23-2.32L3.23-2.32L3.16-1.81Q3.16-1.07 4.48-0.94L4.48-0.94Q6.02-0.94 6.46-2.65L6.46-2.65Q6.46-3.92 5.57-3.92L5.57-3.92Q5.57-4.15 3.37-4.43L3.37-4.43Q1.29-4.97 1.29-6.77L1.29-6.77Q1.29-8.94 4.32-10.10L4.32-10.10Q4.66-10.21 5.01-10.21Z" transform="translate(49.16388416109894 21) " fill="rgb(51, 51, 51)" stroke="rgb(51, 51, 51)" stroke-width="0.038" data-glyph-w="14.627434043282982" data-glyph-h="22.28515625" data-glyph-ascender="19.6109375" data-glyph-descender="-2.67421875" data-kerning="0"></path><path d="M6.24-9.45L6.24-9.45Q6.37-9.38 6.46-9.38L6.46-9.38Q6.62-9.38 6.73-9.45L6.73-9.45Q6.89-9.45 7.00-9.38L7.00-9.38Q7.91-9.45 8.47-9.45L8.47-9.45Q10.61-9.45 10.61-8.62L10.61-8.62Q10.61-8.00 10.45-7.24L10.45-7.24L10.25-7.24Q8.36-6.77 7.22-5.44L7.22-5.44Q6.55-5.15 4.79-3.43L4.79-3.43L4.79-3.30L4.86-3.30Q5.91-3.30 8.18-3.23L8.18-3.23Q9.25-3.28 9.92-3.52L9.92-3.52L9.92-3.43Q10.12-3.25 10.38-2.74L10.38-2.74Q11.08-2.27 11.08-1.92L11.08-1.92Q11.08-1.89 11.01-1.65L11.01-1.65L11.08-1.23Q10.85-0.89 10.45-0.67L10.45-0.67L10.54-0.33Q10.41-0.27 10.32-0.27L10.32-0.27Q9.18-0.82 7.62-0.82L7.62-0.82L7.49-0.76Q7.40-0.82 6.60-0.89L6.60-0.89Q4.84-0.89 2.59-0.13L2.59-0.13L2.32-0.20Q2.03-0.13 1.83-0.13L1.83-0.13Q1.65-0.62 0.87-1.72L0.87-1.72L0.87-1.98Q1.25-3.52 1.89-3.52L1.89-3.52Q1.89-3.74 2.94-3.99L2.94-3.99L6.93-7.44L6.93-7.58Q4.23-7.58 2.59-6.69L2.59-6.69Q1.69-6.98 1.69-7.51L1.69-7.51Q1.54-7.93 1.47-7.93L1.47-7.93Q1.78-8.54 2.65-8.76L2.65-8.76Q2.72-8.87 3.48-9.25L3.48-9.25L4.17-9.18Q5.77-9.34 6.24-9.45Z" transform="translate(63.79131820438192 21) " fill="rgb(51, 51, 51)" stroke="rgb(51, 51, 51)" stroke-width="0.038" data-glyph-w="16.85594966828298" data-glyph-h="22.28515625" data-glyph-ascender="19.6109375" data-glyph-descender="-2.67421875" data-kerning="0"></path><path d="M5.64-9.87L5.64-9.87Q5.82-9.87 7.22-9.03L7.22-9.03Q9.03-8.27 9.03-7.44L9.03-7.44L9.03-7.38Q9.03-7.13 8.82-6.95L8.82-6.95L8.69-7.04Q8.56-6.95 8.40-6.95L8.40-6.95Q6.91-7.93 6.26-7.93L6.26-7.93L5.84-7.93Q3.92-6.51 3.92-4.41L3.92-4.41L3.92-3.99Q3.92-2.27 5.50-2.27L5.50-2.27L6.46-2.27Q7.62-2.27 8.60-3.43L8.60-3.43L8.60-3.65L8.54-3.79Q8.87-3.92 9.38-4.61L9.38-4.61L9.45-4.61Q9.45-4.39 9.52-4.28L9.52-4.28L9.85-4.35Q10.16-4.35 10.21-3.37L10.21-3.37L10.14-3.03L10.21-2.90Q9.27-0.87 8.60-0.74L8.60-0.74Q7.98-0.07 5.84 0.29L5.84 0.29L5.77 0.29Q3.01-0.22 3.01-0.74L3.01-0.74Q2.23-1.45 1.92-2.74L1.92-2.74L1.98-2.74Q1.85-2.74 1.78-5.04L1.78-5.04Q1.78-6.84 4.06-9.32L4.06-9.32Q5.17-9.87 5.64-9.87Z" transform="translate(80.64726787266491 21) " fill="rgb(51, 51, 51)" stroke="rgb(51, 51, 51)" stroke-width="0.038" data-glyph-w="16.521672324532982" data-glyph-h="22.28515625" data-glyph-ascender="19.6109375" data-glyph-descender="-2.67421875" data-kerning="0"></path><path d="M5.64-9.87L5.64-9.87Q5.82-9.87 7.22-9.03L7.22-9.03Q9.03-8.27 9.03-7.44L9.03-7.44L9.03-7.38Q9.03-7.13 8.82-6.95L8.82-6.95L8.69-7.04Q8.56-6.95 8.40-6.95L8.40-6.95Q6.91-7.93 6.26-7.93L6.26-7.93L5.84-7.93Q3.92-6.51 3.92-4.41L3.92-4.41L3.92-3.99Q3.92-2.27 5.50-2.27L5.50-2.27L6.46-2.27Q7.62-2.27 8.60-3.43L8.60-3.43L8.60-3.65L8.54-3.79Q8.87-3.92 9.38-4.61L9.38-4.61L9.45-4.61Q9.45-4.39 9.52-4.28L9.52-4.28L9.85-4.35Q10.16-4.35 10.21-3.37L10.21-3.37L10.14-3.03L10.21-2.90Q9.27-0.87 8.60-0.74L8.60-0.74Q7.98-0.07 5.84 0.29L5.84 0.29L5.77 0.29Q3.01-0.22 3.01-0.74L3.01-0.74Q2.23-1.45 1.92-2.74L1.92-2.74L1.98-2.74Q1.85-2.74 1.78-5.04L1.78-5.04Q1.78-6.84 4.06-9.32L4.06-9.32Q5.17-9.87 5.64-9.87Z" transform="translate(97.1689401971979 21) " fill="rgb(51, 51, 51)" stroke="rgb(51, 51, 51)" stroke-width="0.038" data-glyph-w="16.521672324532982" data-glyph-h="22.28515625" data-glyph-ascender="19.6109375" data-glyph-descender="-2.67421875" data-kerning="0"></path></g></svg>
                  </g>
                </g>
      </svg>