<svg xmlns="http://www.w3.org/2000/svg" xmlns:xlink="http://www.w3.org/1999/xlink" version="1.1" preserveAspectRatio="none" viewBox="0 0 800 600" width="1600" height="1200" style="background:#1f96b7;">
      <path transform="translate(0, 0)" fill="#ffffff" fill-rule="evenodd" d="M288.2818080989507,232.58315829794165L290.16030037584994,233.37628903762354L292.05796765523036,234.7356463210156L293.96747831849984,236.71649927290025L295.15134673120764,238.5620932612577L295.6691657931936,240.29207326409716L295.62639801807643,241.88106060166942L295.12850591947483,243.30367659422524L294.2809520110077,244.53454256201547L293.1891988062936,245.54827982529088L291.95870881895144,246.31950970430222L290.69494456259986,246.82285351930025L288.8699355033608,247.171011407369L287.0674852705873,247.11762218477526L285.4906233022452,246.531844658144L284.8502346166,245.99842240788462L284.34237903629986,245.28283763410025L283.9363201603108,244.38198849815495L283.7287789570374,243.56235113741275L283.7197554264702,242.8329490824393L283.9092495685999,242.20280586380025L284.6108290709874,241.38768026832057L285.55153213364986,240.80716646783776L286.5012587268874,240.4432174012112L287.22990882099987,240.27778600730025L287.6855971151108,240.1146104960362L288.02397951173737,239.80254673023776L288.2405442455999,238.93027210780025L288.07736873433583,238.47458381368932L287.7653049685374,238.13620141706275L286.8930303460999,237.91963668320025L286.4614048001358,237.9925768887018L285.53348507246244,238.25049947103773L284.3348594274827,238.75205737895493L283.0911161295999,239.55590356120024L282.3692336834499,240.23567619796273L281.7917277264999,241.09591944630023L281.38566885052796,242.26070685165803L281.3225041364999,243.52024132806272L281.6022335843968,244.87903464081114L282.2248571941999,246.34159855520022L282.92399282371457,247.35533581847446L283.81149465402336,248.18916644086272L284.8591641520735,248.834630862451L286.0388027848124,249.2832695233252L287.32221201918725,249.5266228635713L288.6811933221452,249.5562313232752L290.0875481606337,249.36363534252288L291.5130780015999,248.9403753614002L293.3418468651999,247.97786543310022L293.63210376543424,250.2773618085221L294.47279603087486,252.26103461372523L295.818806008628,253.81157795121584L297.6250160457999,254.81168592350022L299.14848879156864,255.1981938165596L300.5366085786749,255.26887813940021L301.78035187654365,255.01471536146585L302.8706951545999,254.42668195220023L303.6331834883524,253.7132590659766L304.20617767998897,252.87914645827365L304.8919660038374,251.10602269988772L305.14462485999206,249.62165191995803L305.17620721701144,249.1484805353254L305.1807189822999,248.9403753614002L305.08070818506087,248.4959664804502L304.8137620721374,248.1282576094252L303.9775815719999,247.7853634475002L303.16546382011245,248.13427329647521L302.8225696581999,248.9885008578002L302.7879794576577,249.73444605213928L302.5819421761624,250.7330501026627L302.15934016081087,251.7497012143549L301.4750557586999,252.5497875922002L300.871231170889,252.85583567092522L300.1455889202874,252.97690137282524L299.30264077219215,252.9084729326127L298.34689849189994,252.6460385850002L297.55639961531676,252.26517039855412L296.91366105193435,251.71962277908148L296.04890603832496,250.25179513855022L295.70751579817806,248.47716745839398L295.84437267859994,246.63035153360022L296.2534393980624,245.31291606935025L296.95125909599994,244.03157472740023L298.14546697082415,242.66808165915063L299.53875648900623,241.7591489437221L301.09559749889763,241.31267217037015L302.78045984885,241.33654692835023L304.5578133872148,241.83866880691778L306.3921279623437,242.82693339532835L308.2478734225882,244.30923628283733L310.0895196162999,246.29347305870022L311.3806364496656,248.29068115982523L312.1529002748749,250.4683598724502L312.41082285719676,252.73627389082523L312.15891596189994,255.00418790920023L313.83729264928746,256.16521551007526L315.33519872509993,257.65109021180024L316.1930920956978,258.83430065871835L316.85641558822647,260.096466998183L317.6151441175874,262.7764555795627L317.6429666702046,265.5286324055612L316.97146560309994,268.1905739258002L313.7154749864609,268.2281719699158L310.88359030698746,268.78011125690017L308.4848350952453,269.74713295040954L306.52823288179997,271.0299782141002L305.34314253266245,272.21506856316273L304.41071103969995,273.4362530346002L303.6527344712624,275.0063473550877L303.2556991258999,276.6125357978002L305.9026014284999,279.0188106183002L305.5852739365155,278.0036634283721L305.5657229535999,276.9253515244002L305.83492494915924,275.8109454981283L306.3838563925999,274.6875159413002L307.05488748414524,273.78130908409753L307.90808109922494,272.95123826612837L308.93610561924214,272.2147865778889L310.13162942559995,271.5894371098752L311.4873208997015,271.09267295258337L312.9958484229499,270.74197719650954L314.64988037674834,270.5548329321498L316.44208514249993,270.5487232500002L318.69796778678744,271.7759234084752L320.62900333029995,273.5806295239002L321.79858448626067,275.35046345343267L322.56831044351713,277.2629819602221L322.94438487934315,279.2578401835318L322.9330114710125,281.2746932626252L322.540393895799,283.2531963367654L321.77273583097656,285.13300454521584L320.6362409538189,286.8537730272397L319.1371129416,288.3551569221002L317.7535049197125,289.29961978910023L316.2977086533,289.99142380000023L316.1533321641,291.5314396852002L318.3906977716543,292.7018667971273L320.4267258532094,294.1723263007424L322.23152596372853,295.91349172167065L323.77520765817496,297.8960365855377L325.02788049151206,300.0906344179688L325.9596540187031,302.4679587445892L326.5406377947113,304.9986830910246L326.7409413745,307.6534809829002L326.5303923276875,310.33046172075024L325.9228079355,312.8991600917002L327.6275032537047,314.2286269300861L329.0208867669875,315.8829408692377L330.04430552660153,317.8260077868455L330.63910658379996,320.0217335606002L330.80829778211717,322.17158972061577L330.58496540033747,324.2988870541751L329.95557414258906,326.308878490222L328.90658871299996,328.1068169577002L327.301904192064,329.68593480868617L325.5257725901374,330.5973113969627L323.69549980474216,330.94922908945796L321.92839173339996,330.8499702531002L322.69839967599995,333.2562450737002L325.0144391908,333.05772740093767L327.3665728279,332.2456096490002L328.77424359791405,331.29738697752833L330.18191436793745,329.9656642565252L331.4813027710422,328.46249445455953L332.56412644029996,326.9999305402002L333.7507207111734,325.70054213712046L335.2350914910875,324.6899067124877L336.9360270048578,323.96802426631115L338.77231547729997,323.5348947986002L340.31233136249995,323.3905183094002L339.67466853497496,321.8023769278002L339.2535704414,320.0698590570002L339.085131203964,317.75682738575176L339.3498214342125,315.5340310202627L340.01154700985467,313.4375640828424L341.0342138086,311.5035206958002L339.56413028541874,310.1582626789096L338.40535856714996,308.5016928571252L337.5624104190812,306.6375818320783L337.0397976065,304.6697002054002L336.83977601200786,302.7672391754221L337.0277662323625,301.18060171562524L337.59474473696093,299.81052898966584L338.5316879952,298.55776216120023L339.9032646429312,297.5764532109408L341.4553119022,297.2042325746252L343.02540622261876,297.29221199774713L344.4511240538,297.6915032258002L346.0648321053703,298.5675376527158L347.3627165867125,299.8270721291252L348.1191892334234,301.36633605339705L348.22389978616616,302.2084382454717L348.1086617811,303.0815588239002L347.78306271938436,304.0282775736001L347.3807636478,304.7719668853252L346.8972528010406,305.30811499378774L346.3280184138,305.6322101337002L345.2542182751797,305.76154740530023L344.16237107536256,305.54799051497525L343.21490036476405,305.17201007426274L342.5742296938,304.8140766947002L341.70195507134997,304.6576688313752L340.9379628158,305.1509551696002L340.78155495247495,306.02322979196276L341.2748412907,306.7872220475002L341.44224658191956,306.9037759841438L341.84708352145003,307.1421475835674L343.21790820827505,307.74973197576264L345.0850270768375,308.1407516341017L346.1102317435398,308.1084173162051L347.1461518528,307.8459829686002L348.238751013536,307.25268583312356L349.13734426686256,306.34807689276266L349.84644337805787,305.1456914433705L350.3705601124,303.6590647808002L350.54501503685003,302.47999011878767L350.4668111052,301.3009154567002L349.9697649626219,299.6511132828658L349.01703052587504,298.13666406767516L347.65823721314064,296.82073252517205L345.94301444260003,295.7664833694002L347.4830303277,294.75584794480017L349.01327072137815,293.1481555802955L350.051728698625,291.3509690736877L350.57584543298447,289.46354726131113L350.56306209800005,287.58514897950016L350.2382149972375,286.44216843975016L349.6968031626,285.37137614460016L348.741812843186,284.12763284669234L347.68756368743755,283.21776018016266L346.54307922592034,282.6507816755767L345.31738298920004,282.43572086350014L344.2530763566483,282.5262381546107L343.27280135259844,282.8259885609783L341.6297668266875,283.78925045010016L340.51912060483284,284.79762999209703L340.20433098085334,285.1537774645584L340.07170388040004,285.32325064820014L339.8446116942063,285.7278056023454L339.8070136501251,286.17747820941264L339.9498862175813,286.60910375534866L340.26420586600005,286.95951752610017L340.6687608202032,287.1866097122939L341.11843342730003,287.2242077563751L341.5500589732469,287.0813351889189L341.90047274400007,286.76701554050015L342.37796790371885,286.22861154936265L343.15775133777504,285.5638781301751L344.12702891394383,285.0074270779252L345.17300650000004,284.79387018760013L345.82119677978756,284.93824667687824L346.460363529,285.2991878999751L347.08148321706256,285.87669385690947L347.6755323134,286.6707645477001L348.0490688812133,287.4706629352884L348.20942453915006,288.30552750386886L347.97631666587506,290.0034551741001L347.1476557745375,291.61114753858135L345.8948889461,292.9752045775001L344.55940642072346,293.91139587492984L342.9351709168625,294.6174871426126L341.1304648014453,294.8633783508392L340.1942735040682,294.74184267337216L339.25357044140003,294.4189694699001L338.2131385668321,293.8067793173175L337.29170450175,293.03160164368296L335.794550386825,291.0802631563876L334.73954927018747,288.7409128542736L334.1041423254,286.1895095836001L333.9597658362,284.1802701084501L334.1041423254,282.2432188779001L333.2401392726375,281.17017070007034L332.534048004975,279.97530485948755L331.999403818275,278.663133121411L331.6497420084,277.2381672511001L331.5354439544625,275.4454925098001L331.7459930013,273.7250060131001L330.464651659325,271.62553123210006L329.724722152,269.20120935040006L329.57432997575,267.76346014515L329.6765966556,266.36180506220006L328.48097885413284,265.3459059113876L327.5109493170875,264.11795379202505L326.79357863619845,262.70050753055L326.3559374032,261.11612595340006L326.307811906775,258.90235311846254L326.8371923673,256.83295677280006L324.76929994342026,256.42840181859856L322.99918402856247,255.3651291322626L321.6802446425485,253.76044461129538L321.23790365405216,252.7917310057948L320.9658818052,251.73165415320008L320.8779023820781,251.14662858749227L320.7312700102,250.11945002348762L320.5936611688969,249.09227145946417L320.5327523375,248.5072458937001L317.8829361864496,245.58202406982002L314.99907221106565,242.99010890664073L312.0621949935488,240.74898349465363L309.2533391161,238.8761309243501L306.7535391609199,237.3890342862216L304.7438297102094,236.30517667075947L303.979332230968,235.91992596230688L303.4052453461692,235.64204116845517L303.04419837858813,235.47370767551575L302.91882065100003,235.4171108698001L304.63000163179555,235.3525362291042L306.5470319038766,235.4509491094579L308.60956660651004,235.71742524681082L310.7572608789626,236.1570403771126L315.0667486903923,237.57599056036102L317.107852507903,238.5654770852069L318.99273645230005,239.7484055468001L322.2803094258969,241.74711756967662L325.47764709372507,243.28562953308756L328.22380823269066,244.49929439570477L329.3149034716333,245.02660696380067L330.15785161970007,245.52346511620007L330.8797340659001,246.00472008030007L331.1203615479001,246.19722206590006L332.30545189707505,247.7733320733626L332.99725590800006,249.71038330390007L332.94913041150005,251.82790514600006L334.5739298860632,251.72639042703034L336.13894847054223,251.94521104354226L337.6069641013096,252.45729640380495L338.9407547147375,253.23557591608758L340.1030982471983,254.25297898865927L341.05677263506414,255.48243502978912L341.76455581470736,256.8968734477463L342.18922572250005,258.4692236508001L344.4887220979204,259.7054473398125L346.4002066585126,261.404878931825L347.8063735067735,263.57353411385003L348.58991674520007,266.12117758010004L348.7042147991375,267.91385232140004L348.49366575230005,269.63433881810005L349.3298462524875,270.8555232895501L349.98555614110006,272.18499012790005L351.59954617795785,272.7985902071399L353.10694575987503,273.61973148965626L354.48688797239225,274.634878679582L355.7185059010501,275.83049648105003L356.7809326313892,277.193049598193L357.65330124895013,278.70900273514377L358.3147448392735,280.3648205960352L358.7443964879001,282.14696788500004L358.9113318035766,284.07499558497346L358.78049061021255,285.9488821014875L358.37894349954223,287.75058037338283L357.73376106330005,289.46204333950004L359.920463306475,291.0125866769922L361.728177265425,293.0233300739125L363.06666763436255,295.4311088162266L363.8456991075,298.17275818990004L363.99985108821716,300.87756148041103L363.56296181611253,303.46054710811256L362.59368423995164,305.85403859368284L361.1506713085,307.9903594578L360.1400358838,309.7228773286L361.2642174015484,311.1004696633687L362.16732242016246,312.622438487375L362.8267921131953,314.2707367394688L363.2200676541999,316.0273173585L363.37233973267763,318.3657277095189L363.093738226103,320.62179834401405L362.4181013741393,322.7492836677802L361.3792674164499,324.7019380866125L360.0110745926979,326.43351600630564L358.3473611425468,327.89777183265466L356.4219653056597,329.04845997145446L354.2687253216999,329.8393348285L355.436520570503,331.0830781263328L356.39226285077484,332.4982685051375L357.1043698054842,334.07588243434844L357.5412590775999,335.8068963834L357.75970371368135,337.86294542346775L357.70067478450767,339.8208635684984L357.32131051983947,341.645684637508L356.57874914943733,343.30244244951245L355.43012890306176,344.7561708235279L353.83258801047333,345.9719035785703L351.7432647014325,346.91467453365567L349.11929720569987,347.5495175078L346.9281771923356,347.6525361485398L345.1707506173296,347.2367017811L343.8159990943243,346.4057850071164L342.83290423696235,345.263556428225L342.1904476588864,343.9137866460617L341.85761097373893,342.4602462622625L341.8033757951626,341.0067058784633L341.9967237367999,339.6569360963L342.5945326375655,337.9116348904938L343.53072393494983,336.378386653275L344.8188329248343,335.3053384754937L345.59908633442683,335.0189353747828L346.4723949030999,334.940637448L347.46498326655615,335.0398962843438L348.2771010184749,335.265484548775L348.90874815885616,335.61740224129375L349.3599246876999,336.09564936190003L349.7186100281546,337.08222203833907L349.7389129719624,338.1770770816875L349.56972177363895,339.18169681926724L349.3599246876999,339.8975635784L349.3719560618249,340.81194801015005L349.6306306050343,341.1834166855625L350.0336816374999,341.4375794635L350.9480660693374,341.425548089425L351.31953474476086,341.16687354622184L351.5736975226999,340.7638225138L351.7165700901671,340.3682910901344L351.9587014939874,339.44037136245004L352.1286446531889,338.15151041169065L352.0549524867999,336.6731553188L351.8022936305998,335.71666107765L351.33307004059986,334.7962609588L350.5209522886639,333.86758927025153L349.4561756805624,333.1780411419875L348.13874021630454,332.7321283393047L346.56864589589986,332.5343626275L345.33138826061884,332.6304256300785L344.1601151926827,332.9780195475031L343.075693606552,333.55796937729485L342.09899041668734,334.351100116975L341.2508725375493,335.3382367640644L340.5522068835983,336.50020431608436L340.023860369295,337.8178277705558L339.68669990909984,339.271932125L339.59044891629986,341.3413284707L337.47518295682175,340.4525107088953L335.3373581709249,340.1863165568875L333.3168392825405,340.56981660641094L331.5534910155999,341.63008144919996L330.43457322405305,342.76704630189215L329.6765966555999,343.9401052769125L329.27956131022177,345.14925837425153L329.2434671878999,346.39450559389996L329.4755411149101,347.4243160210201L329.9089525679311,348.34358819856715L331.1023144867499,349.8234472132125L332.2686058138437,350.7799414543765L332.6681790272085,351.04500766507203L332.8528794186999,351.15892973859997L333.7191383541374,351.28525916667496L334.4410208002999,350.7258002709L334.5673502283749,349.8595413354625L334.0078913325999,349.1376588893L333.3882755662718,348.69851373454065L332.6242833107249,348.006709723625L331.9505263609655,347.13443510117185L331.6016165119999,346.1538781118L331.6384625952015,345.495160379675L331.8963851775374,344.8183955864L332.37989602430457,344.12358373197503L333.0935069007999,343.4107248164L333.82065307313155,342.9089789182633L334.6154757247968,342.61815804736875L336.3179151603499,342.59259137739997L338.02035459590303,343.1806247866812L339.5423234198999,344.2288582554L340.4988176610874,345.23347799296255L341.2748412906999,346.4907565867L341.84040986864153,348.2063553376785L341.9192717660827,349.8655570225468L341.5210144842606,351.43452340164174L340.6552255244124,352.87941623529997L339.33149238777514,354.16639728385815L337.55940257558586,355.26162830765315L335.3485435890817,356.13127106702154L332.7085029294999,356.7414873223L330.4623957766843,356.8557853762703L328.31103569492495,356.50085984023747L326.3130756329781,355.71280483651094L324.5271685395999,354.5277144874L324.5271685395999,364.39344125169987L325.1106901835874,364.6400844207499L325.4415529713999,364.77844522289985L329.2530546891228,363.9698992851637L332.89649314984524,362.79477241772327L336.2714815758982,361.39631316849307L339.2776331896124,359.91777008538736L341.8145612133189,358.50239171632074L343.78187886934836,357.2934266092077L344.52056294146263,356.811114200107L345.07919938003175,356.4341233119626L345.4452398378471,356.1803600132638L345.6061359676999,356.06773037249985L344.8073655213774,357.57898375397485L343.76383180815776,359.18836803046236L342.5014774784498,360.8406140771811L341.0462451826624,362.4804527693498L339.42407757120486,364.0526149821873L337.66091729448584,365.50183159091233L335.78270700291455,366.7728334707436L333.8153893468999,367.81035149689984L331.0519331076687,369.2638918806436L328.5636945510499,370.8843675800998L326.3912795646311,372.45972562668106L324.5752940359999,373.7779130517998L323.2759056328999,374.5479209943998L323.1315291436999,374.59604649079984L322.45777219389987,374.8847994692998L322.1690192154999,375.0291759584998L321.63963875489986,375.1254269512998L321.63963875489986,348.9451569036998L321.64687637838495,348.5895734018933L321.64339855931235,347.5803479039045L321.59141926338975,346.003767920879L321.45315245632486,343.94612096396236L321.1908121038256,341.4936945443004L320.76661217159983,338.73277617303887L320.1427666253553,335.74965336132345L319.28148943079987,332.6306136202998L318.0302265240999,329.1655778786998L316.39395964609986,325.74866763349985L314.7095672716999,323.05363983449985L313.6508063506999,321.65800043859986L315.5177372290585,320.9011518114442L317.24367544214994,319.90743550664206L318.8094459874976,318.6971544679907L320.1958738626249,317.29061163928736L321.3837840650554,315.7081099643294L322.35400159231244,313.969952386914L323.0873514419195,312.09644185083835L323.5646586113999,310.1078812998999L323.75716059699994,307.70160647929987L323.5963349634859,305.5240217618284L323.12927326101243,303.44625985135923L322.37909828668273,301.4914435449979L321.3689328375999,299.68269563984984L320.12189971086707,298.04313893302054L318.6611217035874,296.5958962216155L317.009721612864,295.3640903027401L315.19082223579994,294.37084397349986L312.27922970293747,293.3722399229749L309.07888419159997,293.0233300739999L308.8382567096,293.0233300739999L308.41603067465275,289.9594654626169L307.5358604629281,287.07381558013583L306.2360960793769,284.4047304315087L304.55508752894997,281.9905600216874L302.53118481659806,279.8696543556239L300.2027379472719,278.0803634382702L297.60809692592227,276.6610372745782L294.78561175749996,275.65002586949987L292.2830859441,275.16877090539987L289.7805601308,275.02439441619987L286.7967793533,275.26502189819985L284.4386300291,275.79440235879986L282.5165240210748,276.47144913739515L280.6931128787359,277.33968197009983L278.98136792728843,278.38725747302954L277.3942604919375,279.6023322622999L275.9447618978881,280.97306295402643L274.6458434703453,282.4876061643249L273.5104765345143,284.13411850931084L272.5516324156,285.90075660509984L271.29435382187506,289.3417295985123L270.72286355200004,293.07145557039985L268.8940946883,293.3120830523998L267.0248139322158,293.77623090648694L265.2553559831328,294.47160673160295L263.60433187286776,295.3812914079175L262.0903526332375,296.4883658155999L260.73202929605884,297.7759108348198L259.5479728931484,299.22700734574676L258.55679445632325,300.82473622855025L257.7771050174,302.55217836339983L257.061238258225,305.0787669249998L256.8145950891,307.7497319757998L256.89279902076254,309.37396747964976L257.151473564,310.9260147388998L257.68762167247115,312.7728306636854L258.45386981065633,314.5113642215405L259.43217091740087,316.12356835131277L260.60447793155004,317.5913959918498L261.9527437919493,318.89680008199946L263.4589214374438,320.02173356060916L265.10496380687897,320.94814936652676L266.8728238391,321.6580004385998L264.8034274934,324.5936557196998L263.2634116082125,327.4450913820124L262.0121487015,330.36871528899985L260.7308073595625,334.3450844299499L259.846501363,338.2131712039999L259.30283364574063,341.57970007015297L258.998289488775,344.49956417274984L258.8651924127719,346.81485172667175L258.84178763034026,347.69643186503L258.8358659384,348.36765094679987L258.8358659384,376.6173173400999L257.3921010461,375.60668191549985L255.94833615369996,374.21104251949987L254.61285362831245,372.37024228174994L253.63831232599995,370.3128773101999L252.62767690139995,368.5803594393999L250.87184824323276,368.8570810437546L249.08443722806246,368.8811437919624L247.2880026823359,368.634500622864L245.50510343249996,368.0991044752999L243.41794201101774,367.0677901264333L241.6122019493984,365.70486102885457L240.11213398607046,364.06220248338286L238.94198885946247,362.1916997908374L238.12601730800293,360.1452382520372L237.68847007012027,357.9747031678014L237.65359788424314,355.73197983894926L238.04565148879996,353.4689535662999L236.4101365716906,353.8727565596437L234.70694517524996,353.9923183397999L232.97668318708435,353.81410361090616L231.25995649479995,353.3245770770999L229.38503603211694,352.4796550316983L227.72950015657966,351.44693075616243L226.34579813966812,350.20553733603276L225.28637925286245,348.73460785684995L224.6036927676427,347.01327540415457L224.350187955489,345.0206730634874L224.57831408788138,342.73593392038896L225.34052043629995,340.1381910603999L226.34777203695643,338.19155232862L227.58737954997653,336.8822004438483L228.984898848099,336.1300515722118L230.46588580406245,335.8550218798374L231.9558962906056,335.97702753285205L233.38048618046716,336.41598469738267L234.66521134638572,337.0918095395563L235.73562766109995,337.9244182254999L236.93500526696715,339.32156154319523L237.78697694561245,340.90819900301244L238.0704661979015,342.56702470744835L237.929943508183,343.3868500584286L237.56439652469996,344.1807327589999L236.97786703717497,345.00262600235305L236.37329048849995,345.5944192160249L235.75066687867496,345.96062416528423L235.10999620769996,346.1057526153999L234.0632666607203,345.9343055344687L233.08872535838748,345.41996429157496L232.29465466761093,344.7792936205937L231.78933695529997,344.2288582553999L231.4456908325359,343.92130625491234L231.02534469983746,343.7897131006749L230.15307007739997,344.0363562697999L229.84551807685466,344.380002392564L229.71392492258747,344.8003485252624L229.96056809169997,345.67262314769994L230.2493210702109,345.995214365864L230.93510939408748,346.6652115112125L231.96379187987026,347.4525145540547L233.28122734409996,348.12702346469996L234.21365883701247,348.40374506908745L235.25437269689996,348.46390193959996L236.47254932480774,348.22026661402185L237.60049064693743,347.6337371265L238.6381966632984,346.7043134770531L239.58566737389995,345.43199566569996L240.1258572721187,344.32022150250094L240.41508022614997,343.1340032120453L240.4595399132687,341.90266726870755L240.26544001074996,340.65554014686245L239.8389841958687,339.42194832088455L239.18637614589994,338.2312182651484L238.31381953811868,337.1126764540287L237.22751804979995,336.0956493619L235.49500017899996,334.98876294449997L237.3410641429187,333.5983872747187L238.64120450689995,331.87865273887496L239.31872126105623,329.93332993861867L239.29691439549995,327.8661894756L238.8645368886859,326.3427167298484L238.22010641331246,325.0989734319875L237.36813473465776,324.1439831125828L236.31313361799997,323.4867693022L235.30475407601128,323.1684078640519L234.29186276872807,323.07845454362814L232.41496840867495,323.3604398741751L231.00729763863433,323.88606053028445L230.58093581886675,324.10065136681374L230.39369755939995,324.20865174840003L229.87634847297494,324.89444007221255L230.00869358809996,325.79679312990004L230.29744656659057,326.1554784703282L230.69448191199993,326.356252025675L231.59683496969996,326.2299225976L232.2788634891765,325.8953000054141L233.26318028296245,325.5742127090625L234.36480297424214,325.42457249365475L235.39874918619995,325.6042911443L235.95896004286402,325.96372844563126L236.41540029788746,326.53070695022495L236.77258171656712,327.29620312750626L237.03501606419994,328.2511934469L237.09836876842277,329.13380753148283L236.9462846801265,329.97017602184997L236.10860025818744,331.46357033235L234.74755106280463,332.650164603225L233.08872535839993,333.4487470593L231.7231643977874,333.7615627859875L230.24932107019993,333.7856255342L228.4736594438218,333.41566078054143L226.98957064921868,332.64866068149377L225.82243336613743,331.5116958287867L224.99762627432492,330.03183681415L224.54052805352805,328.2361542293133L224.47651738349367,326.1517186660062L224.83097294396867,323.8056007159586L225.62927341469992,321.2248709709L226.73315198863742,319.11938050291405L228.25211296909993,317.37483125801253L230.09592105033744,316.0273173585047L232.1743409265999,315.1129329267L232.29465466766243,313.06759932916253L232.84809787639992,311.02226573170003L233.4565282245763,309.69261090313967L234.2234343285171,308.48815756132973L236.1627414417124,306.48643769498756L238.52615449202648,305.08027084672665L241.17380875549992,304.3328217306L242.83714622523271,307.138387779161L244.73509548996242,309.3077949220625L246.77742124391085,310.89067257745785L248.87388818129992,311.9366501635L250.4560138757999,312.4179051276375L252.0020454479999,312.6104071133L253.33752797339992,312.55025024278757L254.6008222541999,312.2735286384L254.1195672900999,309.96350481070004L253.1390103006999,310.2161636668L252.0501709443999,310.25225778910004L249.7837608477749,309.7965694949688L248.63081682632725,309.27602457480634L247.4902801594249,308.5558340406251L246.38132584954442,307.6326140684595L245.32312889916238,306.5029808343438L244.33486431075534,305.16355051431253L243.4357070867999,303.61093928440005L243.41766002571242,301.0362252264L244.0132130437999,298.4615111684L244.9515662286845,296.55265847092176L246.214202543689,294.9212793386797L247.74641683468957,293.5921884807635L249.49350394756243,292.59020060626256L251.4007587281837,291.9401304242663L253.4134760224296,291.66679264386414L255.47695067617627,291.7950019741456L257.5364775352999,292.34957312420005L259.0464149852374,293.0774712574125L260.3758818235999,293.98584000220006L260.56838380919993,293.8895890094001L262.26330363597333,292.69096336435007L264.09357642136246,291.6998789226001L266.0501786348203,290.9253592147251L268.12408674579996,290.3764277713001L268.81438683495935,287.52048034365635L269.85660461659995,284.8179329358251L271.2236694990156,282.2958561395314L272.88851089049996,279.9813205465001L273.935240437425,277.7916104598501L275.4872876967,275.8906533516001L275.4850318139984,273.294132428033L276.1189348370125,270.78333504493764L277.3754614698703,268.4800788651235L279.24107641669997,266.5061815514001L281.0149521359765,265.28198923644857L282.9647867015125,264.40069108341265L285.0138801033922,263.93447533692046L287.0855323317,263.9555302416001L288.5012866812209,264.2718237873732L289.72190718200466,264.79847838971574L290.755289423308,265.49770801433795L291.60932899438745,266.3317266269501L292.8109624829015,268.2529866789845L293.3899723616,270.2599702715001L293.3899723616,272.2812411208001L295.69999618929995,272.8106215813001L295.8082785562,271.4029508112501L295.69999618929995,269.9230917966001L295.2548353475437,268.09958665917975L294.41263916037497,266.3076638787626L293.1553605666437,264.6510940569891L291.46495250519996,263.2336477955001L289.9527591726421,262.4801829922829L288.10218344343747,261.9342593923376L286.15234887788904,261.56880640394854L284.3423790363,261.3567534354001L282.61587685257655,260.9815249556017L280.9976570357625,260.1957258345376L279.52381370816715,259.07605608210474L278.2304409921,257.6992157082001L277.3641820567,256.3998273051001L276.29338976149995,257.77140395280014L275.0060327325,258.9986041113001L273.0757491499218,260.2799454532126L271.00560084337496,261.16425144975005L268.8542407616156,261.65152210091264L266.68032185339996,261.7417574067001L266.2329051289437,263.6833204025345L265.37491776325,265.50757750087513L264.1830597662062,267.16941104882824L262.73403114769997,268.62370339350014L261.17747212315305,269.7335976544705L259.7021248737999,270.3562212642876L258.22677762444687,270.54571540641103L256.67021859989995,270.35622126430013L255.1369703626515,269.6531378401736L254.04136335841247,268.4853425913126L253.33376816899215,267.0739120168704L252.96455537619994,265.63992261600015L252.91417399719526,263.8021302218392L253.35557503461246,262.05457313343766L254.31131731489836,260.6318631457923L254.98911605438178,260.1156420006898L255.80395966449993,259.76861205390014L256.78677253650153,259.56934242031264L257.6387442151374,259.54603163297514L258.35536293512956,259.69416792660013L258.9321169311999,260.0092395359001L259.5660199542671,260.86497101900164L259.92470529471245,261.91019664418764L260.0758494318765,262.9193281470548L260.0871288450999,263.6667772632001L260.36986613643745,264.50897345033763L260.730055398639,264.7902068199704L261.19401526249993,264.9180401698001L262.03621144972493,264.6353028784626L262.3174448193687,264.275113616261L262.4452781691999,263.8111537524001L262.45119986117186,263.6027665931442L262.44753405189374,263.127621311197L262.2828546188749,261.62745935275007L261.6940692487187,259.8114738241032L261.1602710180187,258.94154907940595L260.42400731999993,258.1804706723001L259.3607346336687,257.54055196218445L258.12601486637493,257.2119450570001L256.7288715486937,257.19916172201573L255.17832821119993,257.5067137225001L254.06542610666244,257.9699216255001L253.06080636909994,258.6136001400001L251.88473955054837,259.88215814694536L251.05156689391242,261.4710514893876L250.59738252152025,263.30358015741103L250.55828055569992,265.3030441411001L248.92201367769994,264.4849107021001L246.76388594799215,263.9577861242501L244.68696999348742,263.9495145545751L242.790524650539,264.4375371666376L241.17380875549995,265.39929513400006L240.33762825539995,266.26555406936257L239.68191836679995,267.27618949400005L239.06681436576713,268.7462730171579L238.80362805726247,270.1216094692876L238.88333591070153,271.3976870850735L239.29691439549995,272.5699940992001L239.89707317398535,273.4505402913461L240.6421724123703,274.15512763723757L242.29874223416246,275.108614034875L243.72972379152338,275.57482978135005L244.1928376993693,275.67032881328834L244.39821701509996,275.69815136590006L244.87947197918902,275.6688248915563L245.28853869868743,275.46353957092504L245.74573091459996,274.68751594130003L245.7164044401984,274.20626097721095L245.51111911953745,273.79719425771253L244.73509548989995,273.34000204180006L244.04705128343278,273.1820902567173L243.09281292493745,272.8346843295126L242.12955103584838,272.27071366845166L241.41443623759994,271.46310768180007L241.21742248665777,270.8397321110344L241.20990287783744,270.1216094692501L241.40090094172336,269.3042279911407L241.79944020889994,268.38307591140006L242.2933845128681,267.64164248235164L242.9266295701265,267.0716561342563L244.5004836949374,266.40993055862504L246.2999260841796,266.3257109399063L248.10388023869993,266.7468090335L249.6040421971624,267.45515618376726L251.04555120684995,268.51542102656254L252.17123664633743,269.95467415360156L252.5352797080609,270.8248808836237L252.72392789419993,271.7999861566L252.72298794307574,273.00302957178496L252.51789061264992,274.1874619551485L251.58094735437493,276.46214362146253L250.08454520033743,278.54733114564533L248.20013123149994,280.3663245178L246.54581729243742,281.49727368348755L244.78322098639993,282.33946987070004L244.28767876550307,283.61629944730316L243.59813063722493,284.82996430990005L242.71908836683428,285.9533938667469L241.65506371959992,286.95951752610006L240.1691890179374,287.9641372636875L238.57503194929993,288.64390990050003L237.42002003538744,290.78549449083755L235.68750216459992,292.63832610270003L234.4963961284874,293.46849091575L233.2331018476999,294.08209099500004L232.9368292603921,295.6160911931219L232.34278016406242,297.07790314662503L231.4599780892765,298.41338567204065L230.29744656659992,299.5683975859L228.4385992676999,300.723409499775L226.3992813572999,301.3009154567L227.07980595502335,303.28082845745155L227.0429598718374,305.3374414681375L226.31130193420773,307.2767485813297L224.9073909685999,308.9047438896L224.46147816589678,309.27395668241405L223.6501123748499,309.9093636272375L222.82972305322804,310.5357470414672L222.3567396587999,310.87788924250003L221.14175886463607,314.63336987452936L220.33396488776395,318.4260725701969L219.85778565960047,322.09018995514725L219.63764911156238,325.45991465502505L219.59798317506653,328.36943929547465L219.6632157815296,330.6529565021407L219.7115527669385,331.50814751331876L219.75777486236848,332.14465890066765L219.79243555924657,332.5417647423929L219.8060883489999,332.67873911670006L218.89367781449386,331.23206037594986L218.02018125560772,329.52426321912344L217.22000088266455,327.6055410350573L216.5275389059874,325.5260872125875L215.9771975358993,323.3360951405506L215.60337898272337,321.0857582077829L215.44048545678254,318.8252698031206L215.5229191683999,316.60482331540004L215.62894565266708,312.76756693749223L215.3604956179874,309.2235753033375L215.028880869264,306.2300190343891L214.93667166616808,305.0200199810713L214.9454132113999,304.04406875210003L215.0416642042999,303.1778098167L215.0897897006999,302.8890568382L215.8658133303249,301.03622522636255L217.20731154279989,299.47214659300005L219.0360804063999,298.4615111684L218.14416080593506,297.10901552804495L217.5584772744249,295.64541766745936L217.27395407592098,294.11752715151295L217.2855154744749,292.572153545075L217.58808573413816,291.05610641301524L218.1765891189624,289.61619532020313L219.0459498929991,288.2992298315082L220.1910923202999,287.1520195118L220.2873433130999,287.1038940154L220.15048643269677,284.55625054911405L220.6723472843999,282.0627482662875L221.84390233765305,279.7677636561672L223.65612806189992,277.81567320799996L225.14200276356243,276.81105347041245L226.73615983219992,276.1312808336L227.34975991141243,274.8018139953375L228.17992472449993,273.5806295239L227.90000728640325,271.87038849419105L227.85357370198275,270.1494320219219L228.03949602991773,268.4431387868418L228.45664632888744,266.77688746869995L229.10389665757123,265.1760567472457L229.98011907464837,263.66602530222815L231.08418563879817,262.2721718133965L232.41496840869993,261.0198749605L233.99709410322652,259.9002052080984L235.68750216466245,259.06477666883745L237.45009847071714,258.5090775774578L239.24878889909994,258.2285961687L239.50144775525774,255.53958405675314L240.33161256833745,252.95885431172502L241.73928333834837,250.59468930053438L243.72446006529992,248.55537139010002L246.0104211448421,247.10107904544375L248.4768528359124,246.197222065975L251.0335198327515,245.83477692111876L253.59018682959993,246.00472008030002L255.56333218239993,246.00472008030002L256.1934754010718,244.3489022193719L257.0672539453249,242.792343194825L258.1756442845656,241.36211359836562L259.50962288819994,240.0852840217L261.44451223120444,238.79407319319276L263.52885379939846,237.91286903527967L265.7045586146901,237.43659581201115L267.9135376989875,237.3601777874375L270.097702074199,237.67853922560917L272.19896276223284,238.38660439057657L274.1592307849971,239.47929754639006L275.92041716439996,240.9515429571L276.40843977644215,239.35212216232344L277.1536330099375,237.82940137746252L278.16050863016403,236.42398649009533L279.4335784024,235.1764833878L281.1062213880101,233.96751828066738L282.83469746906246,233.04843409333282L284.6116750269648,232.47449995057872L286.429822443125,232.3009849771875ZM465.000204603,355.1773502017L465.080204603,355.1073502017L465.000204603,355.4373502017L465.080204603,355.5773502017L464.857704603,356.9611002017L464.680204603,358.6223502017L464.54770460300006,360.5611002017L464.460204603,362.7773502017L464.590204603,362.7773502017L465.632704603,361.92735020170005L465.980204603,361.2573502017L466.470204603,360.8973502017L466.930204603,360.9673502017L468.670204603,360.2773502017L469.430204603,360.8973502017L469.730204603,361.0548502017L469.830204603,361.5273502017L469.830204603,361.9473502017L469.65770460300007,362.4673502017L469.14020460300003,362.9373502017L468.27770460299996,363.3573502017L467.070204603,363.7273502017L466.582704603,363.88485020170003L465.620204603,364.3573502017L465.290204603,364.6473502017L466.86082960299996,365.8373502017L467.992704603,366.8873502017L468.685829603,367.79735020170006L468.940204603,368.5673502017L468.827704603,369.3023502017L468.670204603,369.5473502017L468.740204603,369.6773502017L468.740204603,369.8773502017L468.395204603,370.0348502017L467.760204603,370.5073502017L467.620204603,370.5073502017L467.182704603,370.21235020169996L466.530204603,369.3273502017L466.240204603,369.0573502017L466.310204603,368.4973502017L464.660204603,366.5573502017L464.530204603,366.5573502017L464.530204603,367.1873502017L464.49520460300005,367.4248502017L464.390204603,367.8773502017L464.49520460300005,368.6373502017L464.530204603,369.0573502017L464.14082960300004,369.9629752016999L463.732704603,370.60985020169994L463.305829603,370.99797520169994L462.860204603,371.1273502017L462.170204603,371.1973502017L461.820204603,371.0423502017L461.270204603,370.5773502017L460.955204603,370.43735020170004L460.850204603,370.0173502017L461.405204603,368.4673502017L461.830204603,366.7173502017L462.027704603,365.3998502017L462.220204603,363.4973502017L462.407704603,361.0098502017L462.590204603,357.9373502017L462.68770460300004,357.5923502017L462.720204603,356.5573502017L462.352704603,356.3123502017L462.230204603,355.7973502017L462.40270460299996,355.5698502017L462.920204603,355.1073502017L463.210204603,355.1773502017L464.590204603,355.0373502017ZM481.9608808338,360.7623502017L482.7458808338,361.1373502017L483.31088083380007,361.53235020169996L483.6558808338,361.9473502017L483.3758808338,362.8998502017L482.8958808338,363.2173502017L482.5083808338,363.09985020169995L482.1458808338,362.7473502017L481.9433808338,362.57985020169997L481.5158808338,362.0773502017L480.9558808338,361.7273502017L480.0233808338,362.0548502017L479.1058808338,363.0373502017L479.0458808338,363.3273502017L479.0458808338,363.6673502017L479.1615058338,364.1442252017L479.5083808338,364.4848502017L480.0865058338,364.6892252017L480.8958808338,364.7573502017L482.2983808338,365.02485020169996L483.7858808338,365.8273502017L484.2058808338,366.49735020170004L484.3458808338,366.9873502017L484.3458808338,367.3873502017L484.0633808338,368.48485020170006L483.3258808338,369.5673502017L482.17588083379997,370.4398502017L480.4258808338,371.0373502017L479.39775583380003,370.9204752017L478.5233808338,370.56985020170004L477.8027558338,369.98547520170007L477.2358808338,369.1673502017L477.1758808338,368.8573502017L477.4858808338,368.00235020170004L477.7958808338,367.7173502017L478.6658808338,367.8623502017L479.1758808338,368.2973502017L479.1058808338,368.8073502017L479.43588083379996,369.3948502017L480.4258808338,369.6773502017L481.12713083380004,369.5704752017L481.6908808338,369.2498502017L482.1171308338,368.7154752017L482.4058808338,367.9673502017L482.1833808338,367.01485020169997L481.5158808338,366.6973502017L481.37838083379995,366.5792252017L480.9658808338,366.45485020169997L480.27838083379993,366.32422520169996L479.3158808338,366.1873502017L478.4058808338,365.8386002017L477.7558808338,365.3323502017L477.3658808338,364.66860020170003L477.2358808338,363.8473502017L477.42525583380007,362.8254752017L477.9933808338,361.9298502017L478.94025583380005,361.1604752017L480.2658808338,360.5173502017L480.9558808338,360.4073502017ZM452.1032393097,361.0573502017L452.5032393097,360.9873502017L452.8682393097,361.1273502017L453.2032393097,361.5473502017L452.9932393097,365.5573502017L453.0632393097,365.9573502017L452.9932393097,366.3873502017L453.0457393097,366.85985020170006L453.0632393097,367.0773502017L452.9932393097,367.4773502017L453.0632393097,368.7273502017L453.0632393097,369.2773502017L452.97573930970003,370.13485020170003L452.8632393097,370.3973502017L452.6432393097,370.3273502017L452.5732393097,370.4573502017L452.6432393097,370.5973502017L452.5032393097,370.7973502017L452.1032393097,370.6573502017L452.0432393097,370.9273502017L450.8657393097,369.75485020170004L450.5032393097,368.8573502017L450.8957393097,365.6298502017L451.1932393097,361.7473502017L451.1932393097,361.3473502017L451.2632393097,360.9873502017L451.4132393097,360.9873502017ZM530.0759368699,360.9573502017L531.1709368699,361.5873502017L531.9628118699,361.9717252017L532.5284368698999,362.3648502017L532.8678118699,362.76672520169996L532.9809368699,363.1773502017L532.7709368699,363.6673502017L532.6409368699,363.5773502017L532.3509368699,363.6673502017L531.0709368699,362.9323502017L530.2109368699,362.6873502017L529.7909368699,362.6873502017L528.9509368699,363.4398502017L528.3509368699,364.27735020169996L527.9909368699,365.1998502017L527.8709368699,366.2073502017L527.8709368699,366.6273502017L527.9696868699,367.37985020170004L528.2659368699001,367.91735020170006L528.7596868699001,368.2398502017L529.4509368699,368.3473502017L530.4109368699,368.3473502017L531.5259368699,368.0573502017L532.5509368699,367.1873502017L532.5509368699,366.9673502017L532.4909368699,366.8273502017L532.8659368699,366.55735020170005L533.3309368699,366.0073502017L533.4709368699,366.3373502017L533.8009368699,366.2673502017L534.0459368699001,366.51235020170003L534.1609368699,367.2473502017L534.0909368699,367.5873502017L534.1609368699,367.7173502017L533.7078118699,368.61360020169997L533.2884368699,369.27235020169996L532.9028118699,369.6936002017L532.5509368699,369.8773502017L531.5509368699,370.4698502017L529.7909368699,370.9073502017L528.5134368699,370.6517252017L527.6509368699001,370.3948502017L527.1334368699,370.1367252017L526.9609368699,369.8773502017L526.2984368699001,369.0223502017L525.8709368699,367.8773502017L525.8696868699001,367.7336002017L525.8159368699,367.3023502017L525.7696868699,366.58360020170005L525.7309368699,365.5773502017L525.8734368699,364.63485020170003L526.3009368699,363.6073502017L527.0134368699,362.4948502017L528.0109368699,361.2973502017L528.9609368699,360.88485020170003L529.5909368699,360.7473502017ZM513.5542645454,360.9573502017L514.6492645454,361.5873502017L515.4411395453999,361.9717252017L516.0067645453998,362.3648502017L516.3461395454,362.76672520169996L516.4592645454,363.1773502017L516.2492645454,363.6673502017L516.1192645454,363.5773502017L515.8292645454,363.6673502017L514.5492645454,362.9323502017L513.6892645454,362.6873502017L513.2692645454,362.6873502017L512.4292645454,363.4398502017L511.8292645454,364.27735020169996L511.4692645454,365.1998502017L511.3492645454,366.2073502017L511.3492645454,366.6273502017L511.44801454540004,367.37985020170004L511.74426454540003,367.91735020170006L512.2380145454,368.2398502017L512.9292645454,368.3473502017L513.8892645454,368.3473502017L515.0042645454,368.0573502017L516.0292645454,367.1873502017L516.0292645454,366.9673502017L515.9692645454,366.8273502017L516.3442645454,366.55735020170005L516.8092645454,366.0073502017L516.9492645454,366.3373502017L517.2792645454,366.2673502017L517.5242645454,366.51235020170003L517.6392645454,367.2473502017L517.5692645454,367.5873502017L517.6392645454,367.7173502017L517.1861395454,368.61360020169997L516.7667645454001,369.27235020169996L516.3811395454,369.6936002017L516.0292645454,369.8773502017L515.0292645454,370.4698502017L513.2692645454,370.9073502017L511.9917645454,370.6517252017L511.1292645454,370.3948502017L510.6117645454,370.1367252017L510.4392645454,369.8773502017L509.7767645454,369.0223502017L509.3492645454,367.8773502017L509.3480145454,367.7336002017L509.2942645454,367.3023502017L509.24801454540005,366.58360020170005L509.2092645454,365.5773502017L509.3517645454,364.63485020170003L509.7792645454,363.6073502017L510.4917645454,362.4948502017L511.4892645454,361.2973502017L512.4392645454,360.88485020170003L513.0692645454,360.7473502017ZM499.9795648771,361.21922520170006L500.6483148771,361.37485020170004L501.0495648771,361.6342252017L501.1833148771,361.9973502017L501.0233148771,363.3773502017L500.8233148771,363.3773502017L499.1208148771,364.0623502017L497.7933148771,365.1773502017L497.3901898771,365.4117252017L496.8508148771,365.8248502017L496.1751898771,366.4167252017L495.3633148771,367.1873502017L495.3633148771,367.3173502017L496.7883148771,367.33485020169996L498.7533148771,367.3873502017L499.72331487710005,367.2898502017L500.4933148771,367.0973502017L500.9533148771,367.8773502017L501.4783148771,368.31735020170004L501.6533148771,368.6973502017L501.5833148771,368.9673502017L501.6533148771,369.3873502017L501.0233148771,369.9473502017L501.1133148771,370.2873502017L500.8933148771,370.3473502017L499.64831487710006,369.9348502017L498.1933148771,369.7973502017L498.0633148771,369.8573502017L497.79581487710004,369.7948502017L497.1733148771,369.7273502017L495.29081487709993,369.9173502017L493.1633148771,370.4873502017L492.8933148771,370.4173502017L492.4033148771,370.4873502017L492.0733148771,369.84485020169996L491.4433148771,368.8973502017L491.4433148771,368.6373502017L491.8883148771,367.4823502017L492.4633148771,367.0973502017L492.7258148771,366.8698502017L493.5133148771,366.6273502017L497.5033148771,363.1773502017L497.5033148771,363.0373502017L495.06831487709997,363.25985020170003L493.1633148771,363.9273502017L492.48831487710004,363.5773502017L492.2633148771,363.1073502017L492.1333148771,362.7923502017L492.0433148771,362.6873502017L492.4933148771,362.1748502017L493.2233148771,361.8573502017L493.4658148771,361.6798502017L494.0533148771,361.3673502017L494.7433148771,361.4373502017L496.06081487710003,361.2898502017L496.8133148771,361.1673502017L497.0333148771,361.2373502017L497.3033148771,361.1673502017L497.5733148771,361.2373502017L499.0433148771,361.1673502017ZM433.4944966727,355.24047520169995L434.2319966727,355.4198502017L434.6744966727,355.66547520169996L434.8219966727,355.9773502017L434.7619966727,356.1073502017L434.80512167269995,356.72422520169994L434.9344966727,357.6548502017L435.1501216727,358.8992252017L435.4519966727,360.4573502017L435.5219966727,360.9473502017L435.4519966727,361.0773502017L435.5494966727,361.9823502017L435.5819966727,362.5973502017L435.7819966727,362.5973502017L436.0519966727,362.1073502017L439.0419966727,356.9973502017L438.8119966727,356.5073502017L439.1794966727,356.25485020170004L439.3019966727,355.7573502017L439.9169966727,355.44985020170003L440.2819966727,355.3473502017L440.6219966727,355.3473502017L441.5819966727,355.2873502017L442.5619966727,355.8173502017L442.4919966727,356.1773502017L442.4919966727,356.3773502017L442.7619966727,356.4473502017L442.7619966727,356.5773502017L442.5619966727,356.7373502017L442.7619966727,356.9973502017L442.6219966727,357.0673502017L442.5619966727,356.9373502017L442.4219966727,356.9373502017L442.2719966727,357.7573502017L442.3619966727,358.1173502017L442.2719966727,358.3173502017L442.5544966727,362.0223502017L442.9619966727,365.5573502017L442.8919966727,365.8473502017L442.9619966727,366.1173502017L442.8919966727,366.4073502017L443.32699667270003,368.0523502017L443.6519966727,369.1673502017L443.1819966727,369.2373502017L442.8919966727,369.0973502017L442.0719966727,369.1673502017L441.85949667269995,369.12985020170004L441.4419966727,369.0173502017L440.91699667269995,369.27985020169996L440.6219966727,369.3673502017L440.21699667269996,369.0898502017L439.5019966727,368.2573502017L439.7319966727,366.6773502017L439.5919966727,362.5973502017L439.6619966727,361.7073502017L439.5919966727,361.4173502017L439.7319966727,359.8273502017L439.5919966727,359.7673502017L438.86137167270005,360.94297520170005L438.3394966727,361.8398502017L438.0263716727,362.45797520170004L437.9219966727,362.7973502017L437.6388716727,363.2004752017L437.25949667270004,363.9698502017L436.7838716727,365.1054752017L436.2119966727,366.6073502017L436.0494966727,366.7623502017L435.7819966727,367.2273502017L435.0319966727,367.4973502017L434.33199667270003,367.1473502017L433.7119966727,366.5373502017L433.7819966727,366.4073502017L433.6419966727,365.9773502017L433.7119966727,365.8473502017L433.6419966727,365.7173502017L433.5119966727,363.9073502017L433.5819966727,363.7773502017L433.43199667269994,361.8373502017L433.3819966727,360.6573502017L433.3819966727,359.7673502017L433.2919966727,359.0773502017L432.7844966727,360.0348502017L432.4619966727,361.3473502017L431.9819966727,363.3398502017L431.6419966727,364.5973502017L431.6419966727,364.7973502017L431.7844966727,364.95485020169997L431.9119966727,365.4273502017L431.75949667270004,366.88985020169997L431.3019966727,368.1173502017L431.2119966727,368.7473502017L431.3719966727,369.0973502017L430.93699667270005,369.40485020169996L430.6119966727,369.5073502017L430.2919966727,369.4573502017L429.6319966727,369.3073502017L428.9419966727,369.3723502017L427.8519966727,369.5673502017L427.5819966727,369.40485020169996L427.4919966727,369.0973502017L427.5619966727,368.6073502017L427.4919966727,368.4073502017L427.8519966727,368.2573502017L427.7619966727,367.7873502017L427.9219966727,367.6273502017L427.8519966727,367.4973502017L428.6544966727,365.3586002017L429.4819966727,362.8623502017L430.3344966727,360.00860020170006L431.2119966727,356.7973502017L431.3019966727,356.2473502017L431.2119966727,355.7573502017L431.5244966727,355.4998502016999L432.4619966727,355.1273502017ZM453.17323930969997,357.8648502017L453.7532393097,358.8473502017L453.5132393097,359.27735020169996L452.7932393097,359.8073502017L452.2007393097,359.6348502017L451.8832393097,359.4773502017L451.6132393097,359.5373502017L451.2982393097,359.0748502017L451.1932393097,358.8473502017L451.55073930969996,357.91735020170006L452.3032393097,357.6073502017ZM257.4507539947797,319.8247198096484L256.05661852061246,320.17814142393746L254.68053010761403,320.8022689555328L253.3495593475,321.706125935L252.013324861225,323.00025061190934L250.8891433435,324.6237341549L250.080785395975,326.5449942069406L249.69202162029998,328.732448411L249.7965441827859,330.434135885675L250.23944914193748,332.3117822066L250.88989530437033,334.18040499694996L251.6170414767,335.8550218799L252.15694938959217,337.5296387627922L252.29079842648747,339.3260733085125L252.06370624028904,341.16762550712656L251.5207904839,342.9775953487L250.8470335342,344.3732347446L252.5735357178625,344.6319092878125L254.2639437793,345.1432426872L256.04458714659995,345.9613761261999L256.15662931790933,344.1574219716546L256.36341856027497,342.0331324816125L256.6875137001531,339.64716060483903L257.15147356399996,337.0581592900999L255.67086258846405,336.14302289743273L254.36621045918747,335.00681000561246L253.28714659434218,333.68110297166083L252.48330041209996,332.19748415259994L252.0436852818183,330.80287870288373L251.89000327669058,329.4776416444828L251.98334042110503,328.232488419956L252.28478273944995,327.0781344718624L253.35632699548435,325.0846861752109L254.79332423989996,323.5830202949999L256.37695385615933,322.6144946797515L258.11398349225,322.11519265448743L259.81491900604067,322.2294907084546L260.59263454765744,322.56185741803955L261.29026625539996,323.1017653308999L261.91589770869996,323.82364777709995L262.58965465849997,322.71676135959996L260.6044779315125,321.35120039893746L258.8358659384,319.73298058209997ZM461.21455468,276.2836002017L462.22705468000004,276.6023502017L462.83455468,276.8836002017L463.03705468,277.1273502017L463.48705468,276.8273502017L463.79705468,276.8273502017L471.02705468,284.5873502017L471.55705468,284.5873502017L471.55705468,283.9073502017L471.77705468,283.9073502017L471.81017968,284.37922520169997L471.90955468000004,285.11485020170005L472.07517968,286.11422520170004L472.30705468,287.3773502017L472.17455468,288.0923502017L471.77705468,289.3373502017L471.32705468,289.1073502017L469.81705468,289.1073502017L469.34580468,289.66172520170005L468.76205468,290.72485020170006L468.06580468000004,292.29672520170004L467.25705468,294.3773502017L467.25705468,295.0573502017L466.74705468,295.1898502017L466.57705468,295.5873502017L466.57705468,296.1173502017L467.08705468,296.17235020169994L467.25705468,296.3373502017L466.95955468,297.35922520170004L466.74705468,298.1648502017L466.61955468,298.7542252017L466.57705468,299.1273502017L466.67767968000004,300.1004752017L466.74955468,300.83985020169996L466.79267968,301.34547520169997L466.80705468,301.6173502017L466.57705468,303.0473502017L466.90955468,302.8304752017L467.29705468,302.1798502017L467.73955468,301.0954752017L468.23705468,299.5773502017L468.53705468,299.5773502017L468.53705468,299.8073502017L467.41705468,303.3029752017L466.61705467999997,306.6398502017L466.13705468,309.8179752017L465.97705468,312.8373502017L466.35705468,313.3673502017L466.3051796799999,313.5461002017L466.14955467999994,313.93235020170005L465.89017967999996,314.52610020170005L465.52705468,315.3273502017L465.69205468000007,316.50985020170003L465.74705468,317.3573502017L465.51767968,318.1904752017L465.27955468,319.25985020170003L465.03267968,320.5654752017L464.77705468,322.1073502017L465.07705468,322.7773502017L464.82267967999996,323.93735020170004L464.05955468,325.0773502017L462.78767968,326.19735020170003L461.00705468,327.2973502017L460.28142968,327.0342252017L459.08455468,326.2448502017L457.4164296800001,324.9292252017L455.27705468,323.0873502017L454.11455467999997,322.22735020170006L453.18705467999996,321.2373502017L452.49455468,320.1173502017L452.03705468,318.8673502017L451.61642967999995,318.7729752017L451.02455468,318.4898502017L450.26142968,318.0179752017L449.32705468,317.3573502017L449.66455468,316.2098502017001L449.77705468,315.3273502017L449.34955468,315.0248502017L448.80705468,314.1173502017L449.10705468,312.8373502017L448.97955468,312.1967252017L448.59705468,311.4048502017L447.95955468,310.46172520169995L447.06705468,309.3673502017L446.39017968,309.59860020170004L445.10955468000003,310.2923502017L443.22517968,311.44860020170006L440.73705468,313.0673502017L440.20986718000006,313.2086002017L439.19330468000004,313.6323502017L437.68736718,314.33860020170005L435.69205468,315.3273502017L433.20736718,316.59860020170004L430.23330468,318.1523502017L426.76986718,319.9886002017L422.81705468,322.1073502017L422.30705467999996,322.9923502017L421.83705468,323.3873502017L421.21455468,323.31235020170004L421.00705468,323.0873502017L419.79705468,323.3873502017L417.76705468,323.3873502017L416.54642968,322.4586002017L415.52455468,321.18235020169993L414.70142968,319.55860020169996L414.07705468,317.5873502017L413.92142967999996,316.6773502017L413.45455468,315.7573502017L412.67642967999996,314.82735020169997L411.58705468,313.8873502017L411.58705468,313.5873502017L412.32205468,312.6073502017L412.56705468,311.6273502017L412.33705468,311.6273502017L413.01705468,310.3473502017L413.84705468,310.5773502017L414.59705468,310.3473502017L414.93955468,310.8573502017L415.80705468,311.3273502017L417.65142968,311.07797520170004L419.19455468,310.3298502017001L420.43642968000006,309.08297520170004L421.37705468,307.3373502017L423.05517968000004,304.5598502017L424.50955467999995,302.06735020170004L425.74017968,299.85985020170006L426.74705467999996,297.93735020170004L427.53017967999995,296.2998502017L428.08955467999994,294.94735020170003L428.42517968,293.87985020170004L428.53705468,293.0973502017L428.53705468,292.7973502017L428.30705468,292.7973502017L425.78283593000003,293.36360020169997L423.59517968000006,293.96735020169996L421.74408593000004,294.6086002017L420.22955468000004,295.2873502017L419.05158593000004,296.0036002017L418.21017968,296.7573502017L417.70533593,297.54860020169997L417.53705468,298.3773502017L416.03705468,299.3573502017L415.80705468,299.3573502017L413.75392968,298.9992252017L411.81455468,297.9248502017L409.98892968,296.13422520169996L408.27705468,293.6273502017L408.03080468,293.42047520169996L407.67205468,292.79985020169994L407.20080468000003,291.7654752017L406.61705468,290.3173502017L404.58705468,287.5973502017L405.06330468,285.98297520169996L405.52205468,284.82985020169997L405.96330467999996,284.1379752017L406.38705468,283.9073502017L406.84705468,283.9073502017L407.70955468,284.4173502017L408.49705468,284.5873502017L408.87705468,284.5873502017L412.9988906175,283.7384830142L416.88939842999997,282.9443814517L420.5485781175,282.2050455141999L423.97642967999997,281.5204752016999L427.1729531175,280.89067051419994L430.13814842999994,280.31563145169997L432.8720156175,279.7953580142L435.37455467999996,279.32985020169997L437.64576561749993,278.9191080142L439.68564842999996,278.5631314517L441.4942031175,278.2619205142L443.07142968,278.0154752017L444.4173281175,277.8237955142L445.53189843,277.6868814517L446.4151406175,277.60473301420006L447.06705468,277.5773502017L447.51705468,277.8073502017L447.63127343,277.63625645170004L447.97392967999997,277.46297520170003L448.54502343,277.28750645170004L449.34455468,277.1098502017L450.37252343,276.9300064517L451.62892968,276.7479752017L453.11377343000004,276.5637564517L454.82705468,276.3773502017L454.99705468,276.71485020169996L455.50705468,276.8273502017L456.39517967999996,276.6023502017L457.02955467999993,276.3773502017L457.41017968,276.1523502017L457.53705468,275.9273502017L458.10705468,275.9823502017L458.29705468,276.1473502017L459.57705468,275.9273502017L459.79705468,275.9273502017ZM547.6254279335999,257.4823502017L549.5898029335999,258.1873502017L551.1304279336,259.3623502017L552.2473029336,261.0073502017L553.2360529335999,262.06110020169996L553.9423029336,263.34235020169996L554.3660529336,264.8511002017L554.5073029336,266.5873502017L552.3423029336001,268.0873502017L550.6673029336,269.2773502017L549.4823029336001,270.1573502017L548.7873029336,270.7273502017L547.9429279335999,270.8542252017L547.0698029335999,271.23485020170006L546.1679279335999,271.86922520170003L545.2373029336,272.7573502017L547.0473029336,274.7973502017L547.4973029336,274.7973502017L547.7273029336,274.4973502017L548.3273029336,274.7973502017L548.5573029336,274.7973502017L549.5723029336001,274.7223502017L550.8173029336,274.4973502017L551.6241779335999,275.1092252017L552.6848029335999,275.8148502017L553.9991779336,276.6142252017L555.5673029336,277.5073502017L555.9573029336,278.2998502017L556.0873029336,279.0173502017L556.0873029336,279.3173502017L555.1123029336,281.39110020169994L554.1473029336,282.8723502017L553.1923029336001,283.76110020169995L552.2473029336,284.0573502017L552.1248029336,284.18922520169997L551.7573029336,284.4348502017L551.1448029336001,284.79422520170004L550.2873029336,285.2673502017L549.7248029336,285.0798502017L549.5373029336,284.5173502017L548.1073029336,284.5173502017L545.7666779336,285.5354752017L544.0948029336,286.7898502017L543.0916779336001,288.28047520169997L542.7573029336,290.0073502017L542.4198029336001,291.3673502017L542.3073029336,292.2673502017L542.6179279336,296.3279752017L543.5498029336,300.6698502017L545.1029279336,305.2929752017L547.2773029336,310.1973502017L548.4629279336,313.80172520170004L549.3098029335999,316.9248502017L549.8179279336,319.5667252017L549.9873029336,321.7273502017L549.8448029336,321.88735020170003L549.6473029336,322.36735020170005L549.3948029336,323.1673502017L549.0873029336,324.2873502017L547.8666779336,324.83047520170004L546.9948029336,325.24985020170004L546.4716779336,325.5454752017L546.2973029336,325.7173502017L544.5673029336,326.1673502017L542.4262091835999,326.1179752017L540.5229279335999,325.96985020169996L538.8574591836,325.72297520169997L537.4298029336,325.3773502017L536.2399591835999,324.9329752017L535.2879279336,324.3898502017L534.5737091835999,323.7479752017L534.0973029336,323.0073502017L533.2579279336,322.8804752017L532.3998029335999,322.4998502016999L531.5229279335999,321.86547520169995L530.6273029336,320.9773502017L530.8573029336,320.9773502017L532.2466779336,321.6336002017L533.3248029336,322.1023502017L534.0916779336001,322.3836002017L534.5473029336,322.4773502017L534.5473029336,322.2573502017L532.6746466836,320.95172520169996L531.0516779336001,319.7848502016999L529.6783966835999,318.75672520169996L528.5548029336001,317.8673502017L527.6808966835999,317.1167252017L527.0566779336,316.5048502016999L526.6821466836,316.03172520169994L526.5573029336,315.6973502017L525.6173029336001,315.1548502017L525.0573029336,314.2673502017L524.4823029336,314.0317252017L523.5873029335999,313.3248502017L522.3723029335999,312.1467252017L520.8373029336,310.4973502017L521.0573029336,310.4973502017L522.0948029336,310.8198502017L523.5473029336,311.7873502017L523.8473029336,311.7873502017L523.8473029336,311.5573502017L523.0554279336,310.8611002017L522.4898029336,310.20235020169997L522.1504279336,309.5811002017L522.0373029336,308.9973502017L522.8873029336,309.89735020169996L523.3173029336,310.1973502017L523.5473029336,310.1973502017L524.2973029336,309.7473502017L527.9341779336,310.93297520169995L530.8548029336,311.7798502017L533.0591779336,312.28797520169996L534.5473029336,312.4573502017L534.3173029336,312.0073502017L534.3173029336,311.7873502017L534.7673029336,311.7873502017L535.2973029336,312.0073502017L535.4698029336,311.6698502017L535.8273029336,311.5573502017L535.5973029336,310.1973502017L535.5785529336,308.87922520169997L535.5223029336,307.0348502017L535.4285529336,304.6642252017L535.2973029336,301.7673502017L534.9973029336,301.2373502017L536.5773029336,287.9773502017L536.0473029336,287.9773502017L532.0798029336,290.4648502017L528.5973029336,292.9473502017L528.2241779336,293.0604752017L527.6348029336,293.39985020169996L526.8291779336,293.9654752017L525.8073029336,294.7573502017L524.9798029335999,293.79735020170006L524.2973029336,293.4773502017L523.5473029336,293.7073502017L521.2873029336,290.9873502017L520.4248029336,291.7486002017L519.6473029336,292.29235020170006L518.9548029335999,292.6186002017L518.3473029336,292.7273502017L517.5298029335999,293.34860020170004L516.1273029335999,294.2323502017L514.1398029336,295.3786002017L511.5673029336,296.7873502017L509.58980293359997,298.2898502017L508.1773029336,299.40735020169996L507.3298029336,300.13985020169997L507.0473029336,300.4873502017L507.0473029336,301.5373502017L507.4973029336,301.5373502017L507.1598029336,302.3098502017L507.0473029336,302.9673502017L507.0473029336,304.2473502017L507.7973029336,304.2473502017L510.64620918360004,302.1286002017L513.1279279336,300.2923502017L515.2424591836,298.7386002017L516.9898029336,297.4673502017L518.3699591835999,296.47860020170003L519.3829279336,295.7723502017L520.0287091836,295.34860020170004L520.3073029336,295.2073502017L520.6073029336,295.2073502017L519.3673029336,296.7548502017L518.3473029336,298.6773502017L517.5598029335999,298.99485020170005L517.2973029336,299.5073502017L517.5173029336,300.2573502017L516.3173029336001,301.5092252017L515.4273029336,302.5548502017L514.8473029336001,303.3942252017L514.5773029336,304.0273502017L514.8073029336,304.7773502017L514.3360529336001,305.22110020170004L513.6023029336001,306.3223502017L512.6060529336,308.0811002017L511.3473029336,310.4973502017L508.1073029336,314.0473502017L508.1073029336,315.0173502017L508.5573029336,315.0173502017L510.2873029336,313.4373502017L510.5873029336,313.4373502017L510.5873029336,314.0473502017L508.71980293359996,316.7229752017L506.4273029336,319.5598502017L503.70980293360003,322.55797520170006L500.5673029336,325.7173502017L500.0473029336,325.7173502017L498.0873029336,323.9873502017L496.9198029336,323.7036002017L495.8273029336,323.2323502017L494.8098029336,322.5736002017L493.8673029336,321.7273502017L491.6073029336,321.7273502017L491.0448029336,320.4073502017L490.8573029336,319.7673502017L491.6073029336,319.5373502017L491.3073029336,318.7173502017L491.8698029336,316.3423502017L492.0573029336,314.4973502017L491.7198029336,314.3848502017L491.6073029336,314.0473502017L491.6073029336,313.6673502017L491.76230293360004,313.4561002017L492.2273029336,313.27235020169996L493.0023029336,313.1161002017001L494.0873029336,312.9873502017L495.4473029336,313.4973502017L496.3473029336,313.6673502017L496.5773029336,313.6673502017L497.03917793359994,313.5507877017L497.48480293359995,313.2011002017L497.9141779336,312.61828770170007L498.3273029336,311.80235020170005L498.7241779336,310.75328770170006L499.10480293359996,309.47110020170004L499.4691779336,307.95578770170005L499.8173029336,306.2073502017L499.5873029336,305.4573502017L499.2873029336,305.4573502017L498.64730293360003,306.24485020170005L498.0873029336,306.5073502017L497.3529279336,306.1548502017L496.2798029336,305.2473502017L494.8679279336,303.78485020170007L493.1173029336,301.7673502017L493.3373029336,300.9373502017L492.93417793360004,300.3667252017L492.6248029336,299.4848502017L492.40917793359995,298.2917252017L492.2873029336,296.7873502017L493.8673029336,295.9673502017L495.22667793359994,296.42672520170004L496.29480293359995,296.75485020170004L497.0716779336,296.9517252017L497.5573029336,297.0173502017L497.7873029336,297.0173502017L499.76480293360004,295.8154752017L501.1773029336,294.6998502017L502.02480293360003,293.6704752017L502.3073029336,292.7273502017L502.20667793359996,291.3923502017L502.1348029336,290.40735020170007L502.09167793359995,289.7723502017L502.0773029336,289.4873502017L500.9073029336,289.80735020170005L499.8173029336,290.7673502017L499.5148029336,290.69235020170004L499.0673029336,290.4673502017L497.8223029336,290.69235020170004L496.8073029336,290.7673502017L496.0998029336,290.3767252017L495.4873029336,289.2048502017L494.9698029336,287.2517252017L494.5473029336,284.5173502017L494.7673029336,283.0073502017L494.7673029336,280.9673502017L494.61120918359995,277.87828770170006L494.4029279336,275.2011002017L494.14245918359995,272.93578770170006L493.8298029336,271.0823502017L493.4649591836,269.6407877017L493.04792793359996,268.61110020169997L492.5787091836,267.99328770169996L492.0573029336,267.7873502017L491.6798029336,267.6548502017L491.3073029336,267.2573502017L491.4341779336,266.7836002017L491.81480293360005,266.4123502017L492.4491779336,266.1436002017L493.3373029336,265.9773502017L495.4154279336,266.37610020170007L496.8998029336,266.9623502017L497.7904279336,267.73610020169997L498.0873029336,268.6973502017L500.48152168359996,267.6904752017L502.6191779336,266.70485020169997L504.5002716836,265.7404752017L506.1248029336,264.7973502017L507.4927716836,263.8754752017L508.6041779336,262.9748502017L509.4590216836,262.0954752017L510.0573029336,261.2373502017L512.1323029335999,259.9348502017L514.5773029336,259.0473502017L516.9093341836001,259.6815689517L518.9304279336001,260.3392252017L520.6405841836,261.0203189517L522.0398029336,261.7248502017L523.1280841836,262.4528189517L523.9054279336,263.2042252017L524.3718341836,263.9790689517L524.5273029336,264.7773502017L524.6923029336001,264.8898502017L524.7473029336,265.2273502017L523.3504279336,267.3504752017L522.0198029336001,270.0298502017L520.7554279336,273.26547520170004L519.5573029336,277.0573502017L519.2873029336,277.5086002017L518.8573029336001,278.4123502017L518.2673029336001,279.7686002017L517.5173029336,281.5773502017L516.1841779336,283.0911002017L515.1248029336,284.1723502017L514.3391779336,284.8211002017L513.8273029336,285.0373502017L512.2382404336,285.1032877017L510.86105293360004,285.3011002017L509.6957404336,285.6307877017L508.7423029336,286.0923502017L508.0007404336001,286.6857877017L507.47105293360005,287.4111002017L507.15324043360005,288.2682877017L507.0473029336,289.2573502017L506.74480293360006,289.5598502017L506.5973029336,290.4673502017L506.5973029336,291.5173502017L506.8273029336,291.5173502017L508.2979279336,290.8411002017L509.77980293359997,289.8623502017L511.27292793360004,288.5811002017L512.7773029336,286.9973502017L513.7748029336001,286.8098502017L514.8073029336,286.2473502017L520.6073029336,288.7273502017L520.8391779336,288.5536002017L521.1548029336,288.03235020169996L521.5541779335999,287.1636002017L522.0373029336,285.9473502017L522.2366779336,285.79172520169993L522.6048029336,285.3248502017L523.1416779336,284.54672520170004L523.8473029336,283.4573502017L525.0923029335999,283.9673502017L526.1073029336,284.7373502017L526.7873029336,284.7373502017L527.4688654336001,284.5248502016999L528.3485529336,284.1873502016999L529.4263654335999,283.72485020169995L530.7023029336,283.1373502017L532.1763654336,282.4248502017L533.8485529336,281.5873502017L535.7188654336001,280.62485020170004L537.7873029336,279.5373502017L537.7873029336,279.3173502017L537.0273029336,279.3173502017L536.1616779336,279.3736002017L534.8448029336,279.5423502017L533.0766779336,279.8236002017L530.8573029336,280.2173502017L530.6273029336,280.2173502017L530.6273029336,279.9973502017L531.5273029336,279.0173502017L531.3073029336,277.7373502017L531.6648029336,276.9211002017L532.7373029336,275.9823502017L534.5248029336,274.9211002017L537.0273029336,273.7373502017L539.0960529336,271.7661002017L540.7023029336,269.9923502017L541.8460529335999,268.4161002017L542.5273029336,267.0373502017L542.0073029336,267.0373502017L541.7116779336,267.1150064517L541.2798029336,267.3479752017L540.7116779336,267.7362564517L540.0073029335999,268.2798502017L539.1666779335999,268.9787564517L538.1898029335999,269.8329752017L537.0766779336,270.8425064517L535.8273029336,272.0073502017L534.3748029336,272.5698502017L533.3373029336,272.7573502017L533.3373029336,272.5373502017L533.1173029336,272.5373502017L532.3254279335999,272.98985020170005L531.7598029336,273.5173502017L531.4204279336,274.11985020170005L531.3073029336,274.7973502017L530.2473029336,274.7973502017L529.5979279336001,274.5761002017L528.9298029336,273.9123502017L528.2429279336,272.8061002017L527.5373029336,271.2573502017L526.6898029335999,270.5223502017L526.1073029336,270.2773502017L524.7473029336,270.4973502017L524.7473029336,270.2773502017L526.5973029336001,268.8448502017L528.3673029336,266.8073502017L529.2748029336,266.7523502017L529.5773029336,266.5873502017L530.0273029336,266.8073502017L531.5273029336,266.8073502017L531.7994904336001,266.7367252017L532.2360529336001,266.52485020169996L532.8369904336001,266.1717252016999L533.6023029336001,265.6773502017L534.5319904336,265.04172520169993L535.6260529336,264.26485020169997L536.8844904336,263.3467252017L538.3073029336,262.2873502017L539.4866779336,261.52485020169996L540.8348029336,260.51735020169997L542.3516779336001,259.26485020169997L544.0373029336,257.7673502017L544.6773029336,257.63735020170003L545.2373029336,257.2473502017ZM318.75210897029996,322.33175738830005L319.72439438993587,322.34604464501876L320.6831445137375,322.590431931475L321.50654167889525,322.93407805429376L322.07276822259996,323.24614182010004L322.94504284505,323.4025496835126L323.7090351006,322.9092633453L323.86544296392503,322.03698872284997L323.3721566257,321.2729964673L323.1909340532843,321.14967488274374L322.752540859425,320.9000238701L321.30276028009996,320.31048653910005ZM524.0773029336,312.0073502017L524.2248029336001,312.34485020169996L524.5273029336,312.4573502017L524.7473029336,312.4573502017L524.6348029336,312.11985020170005L524.2973029336,312.0073502017ZM443.52705468,286.6173502017L441.40205468,287.69235020170004L439.08705468,288.6573502017L438.25705468,288.4273502017L436.12705468,289.6523502017L434.11705468,291.3673502017L435.91705468000004,292.4609439517L437.47705468000004,293.4817252017L438.7970546800001,294.4296939517L439.87705468,295.3048502017L440.71705468000005,296.1071939517L441.31705468,296.8367252017L441.67705468,297.49344395170004L441.79705468,298.0773502017L440.20799218,299.6876627017L438.83080468,301.1336002017L437.66549218,302.4151627017L436.71205468,303.5323502017L435.97049218000006,304.4851627017L435.44080468000004,305.2736002017L435.12299218000004,305.8976627017L435.01705468,306.3573502017L434.11705468,307.3373502017L434.11705468,307.5673502017L435.01705468,307.5673502017L435.31314843000007,307.52844395169996L435.90142968000004,307.41172520169994L436.78189843000007,307.2171939516999L437.95455468,306.9448502017L439.41939843,306.5946939517L441.17642968,306.16672520170005L443.22564843000004,305.6609439517L445.56705468,305.0773502017L445.56705468,304.8473502017L444.35705468,303.4173502017L444.95955468,302.1423502017L445.56705468,301.6173502017L446.31705468,301.8373502017L448.80705468,301.6173502017L449.49205468,301.7442252017L450.34705468000004,302.12485020170004L451.37205468,302.7592252017L452.56705468,303.6473502017L453.84705468,303.6473502017L454.20455468,305.0398502017L455.27705468,306.3573502017L455.88346093000007,305.7953189517L456.64767968,304.9742252017L457.56971093000004,303.8940689517L458.64955468000005,302.5548502017L459.88721093000004,300.9565689517L461.28267968,299.0992252017L462.83596092999994,296.9828189517L464.54705468,294.6073502017L467.78705468,289.8573502017L467.78705468,289.6373502017L467.50767968,289.36985020169993L466.74955467999996,289.01735020169997L465.51267968,288.57985020169997L463.79705468,288.0573502017L462.51705468,288.0573502017L462.33330468,287.6404752016999L461.78205468,287.2998502017L460.86330468,287.0354752017L459.57705468,286.8473502017L458.96705468,286.8617252017L458.04705468,286.9048502017L456.81705468,286.9767252017L455.27705468,287.0773502017L453.41205468,286.9048502017L452.03705468,286.8473502017L449.88064843000006,287.4309439517L447.96642968000003,287.9367252017L446.29439843000006,288.3646939517L444.86455468,288.7148502017001L443.67689843000005,288.9871939517L442.73142968,289.18172520170003L442.02814843,289.2984439517L441.56705468,289.3373502017L441.34705468,288.8773502017L442.43205468,288.3986002017L443.20705468,287.8623502017L443.67205468,287.2686002017L443.82705468,286.6173502017ZM252.6276769014,300.7715349961L251.821574836475,301.16255465442504L251.58545911970626,301.5498145083625L251.52079048390002,302.0227979028L251.9298572034125,302.82889996772496L252.31937293999846,303.06501568449374L252.7720533906,303.1296843203L253.5059672108625,303.13570000735L254.456445765,303.3221863059L255.1783282112,301.0602879746L254.24514475734844,300.87304971511094L253.4518260274375,300.78958205726246L252.88409556195782,300.7692791134578ZM468.83705468,299.5773502017L468.53705468,299.5773502017L468.53705468,299.1273502017L468.83705468,299.1273502017ZM446.01705468,285.3373502017L445.67955468,285.50985020170003L445.56705468,285.8673502017L446.54705468,285.8673502017L446.54705468,285.3373502017ZM500.8635529336,280.19235020170004L500.53230293359996,280.55735020170005L500.3335529336,281.09235020169996L500.2673029336,281.7973502017L500.7748029336,283.0623502017L501.0973029336,284.7373502017L502.3073029336,284.5173502017L502.0773029336,281.5773502017L502.0773029336,280.2173502017L501.3273029336,279.9973502017ZM545.2373029336,283.2273502017L544.8998029336,283.3823502017L544.7873029336,283.6873502017L545.2373029336,284.0573502017L545.6173029336,283.4573502017L545.6173029336,283.2273502017ZM312.11079046550003,278.7781831363L311.7340580639422,279.3857675284703L311.0821079797625,280.1738225321875L310.2226166923016,280.8896892912859L309.2232606809,281.2807089496L308.24871937855,281.196489330925L307.20198983160003,280.6069519999L309.1751351844,283.6388582738L309.5120136593,283.5907327774L310.5376883015732,283.32482061070056L311.44605704634216,282.86208268328596L312.8928297822125,281.62360311156255L313.81623774460155,280.43024119273286L314.070400522519,280.02390033143536L314.18018681120003,279.8369440573L314.32832310484696,279.3857675284172L314.28245349107505,278.9345909995625L314.06513679634065,278.5375556541766L313.6989318471,278.2488026757L312.79657878936257,278.1886458052625ZM507.2773029336,277.7373502017L507.1073029336,278.8098502017L506.5973029336,279.7673502017L506.5973029336,280.9673502017L506.74480293360006,281.4248502017L507.0473029336,281.5773502017L507.26292793360005,280.96985020169996L507.45980293360003,280.1273502017L507.63792793360005,279.0498502017L507.7973029336,277.7373502017ZM500.5866779336,271.7011002017L499.8148029336,271.9123502017L499.2316779336,272.1911002017L498.8373029336,272.5373502017L499.1254279336,274.1517252017L499.45980293360003,275.3048502017L499.8404279335999,275.99672520170003L500.2673029336,276.2273502017L501.5498029336,275.5848502017L502.0773029336,275.0173502017L502.0773029336,272.0073502017L501.94480293359993,271.6698502017L501.5473029336,271.5573502017ZM446.31142968000006,262.59047520170003L448.78455468000004,264.3998502017L450.94642968,266.58547520170004L452.79705468,269.1473502017L453.24455468,269.3923502017L453.84705468,270.1273502017L453.84705468,270.3473502017L453.2164296799999,271.0079752017L452.45455468,271.4798502017L451.56142967999995,271.7629752017L450.53705468,271.8573502017L448.49705468,271.8573502017L447.70205468000006,271.7492252017L446.89705468,271.4248502017L446.08205467999994,270.8842252017L445.25705468,270.1273502017L444.80705468,270.1273502017L442.41955468000003,270.37672520169997L439.62705468,271.1248502016999L436.42955468,272.3717252017L432.82705468,274.1173502017L432.57767967999996,274.5979752017L431.82955468,275.0598502017L430.58267967999996,275.5029752017L428.83705468,275.9273502017L428.83705468,275.3173502017L429.17455467999997,275.0748502017L429.28705468,274.3473502017L428.96330467999996,274.1839127017L428.51705468,273.7736002017L427.94830468,273.1164127017L427.25705468,272.2123502017L426.44330468,271.0614127017001L425.50705468,269.6636002017L424.44830468,268.01891270170006L423.26705468,266.1273502017L423.26705468,265.3073502017L424.54705468,265.3073502017L425.06955468,265.24250645169997L425.99705468,265.04797520169996L427.32955468,264.7237564517L429.06705468,264.26985020169997L431.20955468,263.6862564517L433.75705468,262.9729752017L436.70955468,262.13000645170007L440.06705468,261.1573502017L440.51705468,261.3873502017L443.52705468,261.1573502017ZM284.318316288075,271.31271550543744L284.0370829184312,271.672904767639L283.9092495686,272.1368646315L283.9092495686,272.8106215813L286.2673988927,272.28124112079996L286.2027302569375,271.8285606701562L285.966614540175,271.43904493357496L285.1605124753,271.02997821409997ZM509.7573029336,268.0173502017L508.4685529336,268.29985020170005L507.4623029336,269.1473502017L506.7385529336,270.55985020170004L506.2973029336,272.5373502017L506.5973029336,272.5373502017L507.9798029336,272.1829752017L508.96730293359997,271.6498502017L509.55980293359994,270.9379752017L509.7573029336,270.0473502017L509.9823029336,268.8248502017L510.0573029336,268.0173502017Z"></path></svg>