<svg class="svg-canvas" viewBox="192.07111775543714 207.0567496700251 194.80256040802357 194.80256040802357" width="1200" height="1200" preserveAspectRatio="none" version="1.1" xmlns="http://www.w3.org/2000/svg" xmlns:xlink="http://www.w3.org/1999/xlink" style="background: rgb(255,255,255);background:#eaf8fc;"><g id="shape_2CZDBaSoEu" ref="shape_2CZDBaSoEu" key="shape_2CZDBaSoEu" mask="">
                  <g transform="translate(214.92577830334,232.29874139472) rotate(0,74.546625991273,72.15930440348) scale(1,1)" style="opacity: 1;mix-blend-mode: undefined;" filter="">
                    <!--普通元素-->
                    <svg version="1.1" id="图层_1" xmlns="http://www.w3.org/2000/svg" xmlns:xlink="http://www.w3.org/1999/xlink" x="0px" y="0px" viewBox="-0.1407993882894516 0.020338058471679688 309.80096435546875 299.8797302246094" enable-background="new 0 0 309.7 299.7" xml:space="preserve" width="149.09325198255" height="144.31860880696" class="style-removed" preserveAspectRatio="none" data-parent="shape_2CZDBaSoEu">
<path fill="#2DB6DC" d="M301.6,160.9c0.8-1.1,1.5-2.3,2.1-3.6c4.6-5.5,6.9-12.8,5.6-20.4c-1.3-8-6.2-14.5-12.7-18.1
	c2.1-4.6,3-9.8,2.1-15.2c-1.7-10.2-9-17.9-18.2-20.7c-0.8-1.9-1.8-3.7-3.1-5.3c0.5-2.3,0.6-4.8,0.2-7.3c-1.2-7.5-6.5-13.4-13.3-15.7
	c0-0.1,0-0.1,0-0.2c-1.5-9.1-10.1-15.3-19.2-13.8h0c0.3-1.4,0.3-2.9,0.1-4.4c-0.5-2.9-2-5.4-4-7.3l0.1,0c0,0-0.2-0.1-0.5-0.4
	c-0.5-0.4-1-0.7-1.5-1c-3.9-2.7-14.3-5.7-23.2-12c-9.9-7.1-24.6-9.8-33.4-9c0,0,22.9,10.1,36.6,27.2c0,0.6,0.8,6.1,0.9,6.7
	c1,6.1,6.2,10.5,12.2,10.6c-1.1,2.7-1.5,5.8-1,8.9c0.8,4.6,3.3,8.4,6.9,10.9c-0.3,1.9-0.3,3.9,0.1,5.9c0.6,3.6,2.1,6.7,4.2,9.4
	c-0.5,2.3-0.6,4.8-0.2,7.3c0.7,4.1,2.5,7.6,5.1,10.4c-0.4,2.6-0.4,5.4,0,8.2c1.2,7.2,4.6,14.2,10.7,17.1c5.2,2.4,10.6-0.3,13.8-3
	c3.9-3.3,6.4-8.8,3.7-13.1c-1.6-2.5-3.4-3.8-5.2-3.9c-2.9-0.1-6,3-6.8,4.1c-0.8,1.1-2.4,1.3-3.4,0.4c-1.1-0.8-1.3-2.4-0.4-3.4
	c0.2-0.3,4.8-6.2,10.9-6c3.5,0.1,6.6,2.2,9.1,6.1c0.9,1.4,1.5,3,1.8,4.6c0.8,5.1-1.5,10.8-6.4,14.9c-0.9,0.8-2,1.5-3.2,2.1
	c5.2,2.5,8.7,6.8,9.4,11.5c0.3,1.6,0.2,3.3-0.2,4.9c-1.2,4.5-3.4,7.5-6.7,8.7c-5.7,2.2-12-2-12.2-2.2c-1.1-0.8-1.4-2.3-0.7-3.4
	c0.8-1.1,2.3-1.4,3.4-0.7c1.2,0.8,5,2.7,7.8,1.7c1.7-0.6,2.9-2.4,3.7-5.3c1.3-4.9-2.9-9.4-7.6-11.2c-3.6-1.4-8.9-1.9-12.3,1.8
	c-3.1,3.4-4.2,6.9-3.1,12.7c1,5.5,3.8,11,8.3,14.2c-3.3,5.1-4.8,11.3-3.7,17.8c0.4,2.5,1.2,4.8,2.2,6.9c-1.1,0-2.2,0.1-3.2,0.3
	c-5.2,0.8-10.1,3.2-12.9,7.2c-2.6,3.8-7,9-10.8,10.9c-3.2,1.6-6.6,2.2-9.7,2.1c-0.5-1.7-1-3.3-1.6-5c4.7,0.8,10.4-0.3,14.5-5.7
	c3.5-4.6,4.6-10.9,3.6-16.8c-1-6.4-4.7-11.6-9.8-14.8c1.1-3.5,1.7-7.1,1.7-10.9c0-15-9.1-27.9-22-33.5c0.2-1.1,0.3-2.1,0.3-3.2
	c2.1-0.8,4-1.9,5.9-3.4c9.3-7.6,10.7-21.4,3.1-30.7c-2.4-2.9-5.4-5-8.7-6.3c-10.3-0.5-17.7,3.4-20.9,8.6c-1.9,3.1-2.3,6.3-1,9
	c-1.7-1.8-3.6-3.5-5.5-5c0.3-2.2,1.1-4.5,2.4-6.6c1.1-1.7,2.6-3.4,4.4-5c4.8-3.9,12.1-6.6,21.7-5.9c2.8-7.1,1.9-15.6-3.4-21.9
	c-1.9-2.3-4.2-4.1-6.6-5.5c1.4-6.2,0-12.9-4.3-18.1c-10.1-12.4-21.3-13.5-27.3-4.7c-1.2,1.7-1.9,3.6-2.3,5.4c-1,5,0.4,10.9,5.2,12.5
	c2.8,1,5,0.9,6.5-0.2c2.3-1.7,2.9-5.9,2.8-7.4c0-1.4,1.1-2.5,2.4-2.5c1.3,0,2.5,1.1,2.5,2.4c0,0.3,0,7.9-4.8,11.4
	c-2.8,2.1-6.5,2.3-10.9,0.8c-5.6-1.9-8.9-7.5-8.9-14.2c-1.2,0.8-2.5,1.5-3.8,2c-7.9,3-16,0.7-19.3-5.4c-2.2-4.2-2.5-7.8-0.9-10.9
	c0.7-1.3,1.6-2.4,2.7-3.2c3.3-2.7,7.6-3.4,7.9-3.4c1.3-0.2,2.6,0.7,2.8,2.1c0.2,1.3-0.7,2.6-2.1,2.8c-1.5,0.2-5.5,1.4-6.9,4
	c-0.8,1.6-0.5,3.8,0.9,6.4c2.4,4.5,8.3,4.6,13.2,3.2c6.9-2,15.4-10.5,6.8-21C153.5-3.6,143-1.4,133.9,6c-3.9,3.2-6.3,7.5-7.3,12
	c-9.1-9.2-23.9-10.1-34.1-1.8c-4,3.3-6.8,7.6-8.2,12.3c-1.4-0.1-2.8-0.1-4.1,0c-7-1.2-14.5,0.5-20.5,5.3c-6.3,5.1-9.4,12.6-9.3,20.1
	c-5,0.4-10,2.3-14.2,5.8c-8,6.5-11,16.7-8.8,26.1c-1.3,1.6-2.3,3.4-3,5.3c-2.3,0.7-4.4,1.9-6.4,3.5c-5.9,4.8-8.3,12.3-7,19.3
	c0,0-0.1,0.1-0.2,0.1c-7.1,5.8-8.2,16.4-2.4,23.5c0,0,0,0,0,0c-1.3,0.5-2.7,1.2-3.8,2.1c-2.3,1.9-3.7,4.4-4.3,7.1l-0.1,0
	c0,0,0,0.2-0.1,0.6c-0.1,0.6-0.2,1.2-0.2,1.8c-0.4,4.7,2.3,15.3,1.2,26.1c-1.2,12.1,3.8,26.2,8.9,33.4c0,0-2.7-24.9,5.3-45.3
	c0.5-0.3,4.9-3.7,5.3-4.1c4.8-3.9,6-10.6,3.1-15.8c2.9-0.4,5.7-1.6,8.1-3.6c3.6-2.9,5.7-7.1,6.1-11.4c1.8-0.7,3.5-1.7,5.1-3
	c2.8-2.3,4.8-5.2,6-8.3c2.3-0.7,4.4-1.9,6.4-3.5c3.2-2.6,5.4-6,6.5-9.6c2.5-1,4.9-2.3,7.1-4.1c5.6-4.6,10-11.1,9.4-17.8
	c-0.5-5.7-5.6-9-9.6-10.5c-4.8-1.8-10.8-1.2-13.1,3.4c-1.4,2.7-1.6,4.8-0.8,6.4c1.4,2.6,5.6,3.7,6.9,3.9c1.3,0.2,2.3,1.4,2.1,2.8
	c-0.2,1.3-1.4,2.3-2.8,2.1c-0.3,0-7.8-1.1-10.6-6.5c-1.6-3.1-1.4-6.8,0.8-11c0.8-1.5,1.8-2.8,3.1-3.9c4-3.3,10.1-4.1,16.1-1.9
	c1.2,0.4,2.3,1,3.4,1.7c-0.5-5.7,1.5-10.9,5.2-13.9c1.3-1,2.8-1.8,4.4-2.3c4.5-1.3,8.2-0.8,10.9,1.4c4.7,3.8,4.2,11.4,4.2,11.7
	c-0.1,1.4-1.3,2.4-2.6,2.3c-1.4-0.1-2.4-1.3-2.3-2.6c0.1-1.5-0.2-5.7-2.4-7.6c-1.4-1.1-3.6-1.3-6.5-0.5c-4.9,1.4-6.7,7.2-5.9,12.2
	c0.6,3.8,2.8,8.7,7.7,9.8c4.5,1,8.1,0.2,12.6-3.6c4.3-3.7,7.6-8.8,8.2-14.3c6,0.3,12.2-1.6,17.3-5.7c1.9-1.6,3.6-3.4,4.9-5.4
	c0.6,0.9,1.1,1.8,1.8,2.7c3.3,4.1,7.8,7.2,12.7,7.6c4.6,0.4,11.3,1.5,14.8,3.9c5.3,3.5,8.1,8.9,8.8,13.9c0.3,2.1,0.3,4.1,0,6
	c-1.6-0.4-3.2-0.8-4.8-1.1c0.2-1.4,0.2-2.8,0-4.2c-0.8-5.4-4.7-12-13.1-13.1c-5.7-0.8-11.7,1.5-16.3,5.3c-6,4.9-8.7,12.3-7.8,19.5
	c-2.5,2.4-4.3,5.3-5.4,8.5c0,0,0,0,0,0c-5,6.1-8.5,13.5-9.9,21.6c-5.9,1.2-11.2,3.7-15.7,7.3c-0.1,0.1-0.3,0.1-0.4,0.2
	c-1.7-1.4-3.7-2.5-5.9-3.4c-11.3-4.3-23.9,1.4-28.1,12.7c-1.3,3.5-1.6,7.2-1.2,10.7c4.7,9.2,11.8,13.6,17.9,13.8
	c1.6,0.1,3-0.1,4.3-0.6c0.2,1.6,0.5,3.3,1,4.8c-1.7,0.5-3.5,0.8-5.4,0.7c-2.1-0.1-4.3-0.5-6.5-1.4c-5.8-2.2-11.8-7.1-16-15.8
	c-7.6,1.1-14.4,6.2-17.3,13.9c-1.1,2.8-1.5,5.7-1.4,8.5c-6,1.9-11.2,6.4-13.6,12.7c-5.7,14.9-1,25.2,9.6,26.1
	c2.1,0.2,4.1-0.1,5.9-0.7c4.8-1.6,9.2-5.8,8.2-10.8c-0.6-2.9-1.7-4.8-3.4-5.5c-2.6-1.1-6.6,0.5-7.9,1.3c-1.2,0.7-2.7,0.3-3.3-0.9
	c-0.7-1.2-0.3-2.7,0.8-3.3c0.3-0.2,6.8-4,12.3-1.5c3.2,1.4,5.3,4.5,6.2,9.1c1.1,5.8-2.1,11.5-7.9,14.8c1.3,0.7,2.5,1.5,3.6,2.3
	c6.6,5.3,8.6,13.5,4.9,19.4c-2.5,4-5.5,6.1-9,6.3c-1.5,0.1-2.9-0.2-4.1-0.7c-4-1.5-6.7-4.9-6.9-5.1c-0.8-1.1-0.7-2.6,0.4-3.4
	c1.1-0.8,2.6-0.7,3.4,0.4c0.9,1.2,4,4.1,6.9,3.9c1.8-0.1,3.5-1.4,5.1-4c2.7-4.3-0.2-9.5-3.8-13c-5.2-4.9-16.8-8.1-21.6,4.6
	c-5.8,15.3,1.4,23.2,12.3,27.4c4.7,1.8,9.7,1.8,14.1,0.3c-3.4,12.5,3.2,25.7,15.5,30.4c4.9,1.9,10,2.1,14.8,1
	c0.6,1.3,1.3,2.4,2.1,3.6c1.1,3,2.7,5.7,4.8,8.1c0.9,1,1.9,2,3,2.9c0.9,0.8,1.9,1.5,3,2.1v-57.4c0,0,0-0.5,0-1.3
	c0-3.1,0.2-11.3,2.1-21.1c1-5.2,2.4-10.8,4.5-16.3c1.5-4.1,3.5-8.1,5.8-12c1.3-2.1,2.7-4.2,4.3-6.1c-10.1-3.3-17.9-11.8-20.2-22.3
	c-0.5-2.1-0.7-4.3-0.7-6.6c0-3.8,0.7-7.4,2-10.8c3.7-9.9,12.5-17.3,23.1-19.2c1.2-0.2,2.5-0.4,3.8-0.5c0.3-5.3,1.6-10.4,3.8-14.9
	c4.8-10.1,13.8-17.8,24.7-21c1.6-0.5,3.2-0.8,4.9-1.1c2-0.3,4.1-0.5,6.2-0.5c1.8,0,3.5,0.1,5.2,0.3c1.8,0.2,3.5,0.6,5.2,1
	c16.2,4.4,28.2,18.7,29.2,36.1c0.2,0,0.3,0,0.5,0c4.6,0,8.9,1,12.7,2.8c10.5,4.8,17.8,15.4,17.8,27.7c0,1.7-0.1,3.4-0.4,5v0
	c-1.9,11.3-9.9,20.5-20.6,24c0.8,1,1.5,1.9,2.2,2.9c1.3,1.8,2.4,3.7,3.5,5.6c1.3,2.3,2.4,4.7,3.4,7.1c1,2.4,1.9,4.8,2.6,7.2
	c5.5,17.5,4.9,33.9,4.9,33.9v13.3v16.4v24.7c0.4-0.1,0.7-0.2,1.1-0.3l0,0.1c0,0,0.2-0.1,0.6-0.3c0.5-0.2,0.9-0.4,1.4-0.6
	c0.1,0,0.2-0.1,0.3-0.1c0.8-0.4,1.7-0.9,2.7-1.6c4.5-3.1,11.2-8.8,19.2-12.4c11.1-5,20.8-16.4,24.5-24.4
	c-0.6,0.4-20.5,14.9-41.9,18.1c-0.2-0.1-1-0.4-1.9-0.8V254c4.6,3.8,10.7,5.6,17,4.6c15.8-2.6,22.3-11.7,17.8-21.3
	c-0.9-1.9-2.2-3.5-3.6-4.7c-3.8-3.4-9.6-5.1-13.4-1.7c-2.3,2-3.3,3.9-3.1,5.7c0.3,2.8,3.7,5.4,5,6.2c1.2,0.7,1.6,2.2,0.9,3.3
	c-0.7,1.2-2.2,1.6-3.3,0.9c-0.3-0.2-6.9-3.9-7.5-9.9c-0.4-3.5,1.2-6.8,4.8-9.9c4.4-3.9,11-3.9,16.7-0.6c-0.1-1.5,0-2.9,0.2-4.3
	c1.3-8.4,7.3-14.2,14.3-14c4.7,0.2,8,1.8,9.9,4.7c0.8,1.2,1.3,2.6,1.5,3.9c0.7,4.2-0.9,8.3-1,8.5c-0.5,1.3-1.9,1.9-3.2,1.4
	s-1.9-1.9-1.4-3.2c0.5-1.4,1.6-5.5,0-7.9c-1-1.5-3-2.3-6-2.4c-5.1-0.2-8.1,4.9-9.3,9.8c-1.7,7,1.4,18.6,14.8,16.4
	c16.1-2.6,19.4-12.8,17.5-24.4c-0.8-5-3.3-9.2-6.8-12.4c12.5-3.3,20.7-15.6,18.6-28.7C307.3,169,305,164.5,301.6,160.9z
	 M225.2,184.9c1.1,0.8,1.4,2.3,0.7,3.4c-0.8,1.1-2.3,1.4-3.4,0.7c-1.1-0.7-4.3-2.3-6.9-1.9c1.9-1.2,3.7-2.6,5.3-4.2
	C223.3,183.6,225.1,184.8,225.2,184.9z M195.8,101.8c2.9-0.4,5.4-4,6-5.2c0.6-1.2,2.1-1.7,3.3-1.1c1.2,0.6,1.7,2.1,1,3.3
	c-0.2,0.3-3.7,7-9.7,7.8c-0.2,0-0.5,0.1-0.7,0.1c-1.2-2.2-2.6-4.4-4.1-6.3C193.1,101.6,194.5,102,195.8,101.8z M143.2,82.8
	c0.1-1.4,1.3-2.4,2.6-2.3c1.3,0.1,2.4,1.3,2.3,2.6v0c-1.7,0.3-3.3,0.6-4.9,1.1C143.2,83.4,143.2,82.9,143.2,82.8z M78.5,147.2
	c-1.3,0.1-2.5-1-2.6-2.3c-0.1-1.4,1-2.5,2.3-2.6c0.2,0,2.6-0.1,5.3,0.6c-0.6,1.5-1.1,3.1-1.5,4.7C80.7,147.2,79.2,147.1,78.5,147.2z
	 M81.6,234.5c-2.3-0.9-4.7-1.4-7.1-1.6c0.5-0.9,1-1.9,1.4-2.9c1.9-4.9,2.3-10.4,0.2-14.8c-2-4.2-4.3-10.5-4-14.8
	c0.4-6.4,3.7-11.5,7.6-14.6c3.6-2.9,7.6-4.2,11.4-4.1c2.3,2.4,4.9,4.5,7.8,6.2c-0.5,0.8-0.9,1.5-1.4,2.3c-0.4-0.5-0.8-1-1.3-1.5
	c-3.6-3.6-9.5-2.2-13.5,1c-4.2,3.4-8.1,10-4.8,17.9c1.8,4.3,5.4,7.9,9.7,10.1c-1.5,7.4-2.1,14-2.3,18.5
	C84.2,235.6,82.9,235,81.6,234.5z" stroke-width="0"></path>
</svg>
                  </g>
                </g></svg>